<?xml version="1.0" encoding="UTF-8"?>
<svg id="Capa_2" data-name="Capa 2" xmlns="http://www.w3.org/2000/svg" viewBox="0 0 1138.92 163.93">
  <defs>
    <style>
      .cls-1 {
        fill: #333332;
      }

      .cls-1, .cls-2 {
        stroke-width: 0px;
      }

      .cls-2 {
        fill: #e74134;
      }
    </style>
  </defs>
  <g id="diseño">
    <g>
      <path class="cls-2" d="M134.12,29.81H29.8v104.32h104.32V29.81ZM163.92,14.9v134.12c0,8.23-6.67,14.9-14.9,14.9H14.9c-8.23,0-14.9-6.67-14.9-14.9V14.9C0,6.67,6.67,0,14.9,0h134.12c8.23,0,14.9,6.67,14.9,14.9"/>
      <polygon class="cls-2" points="359.5 163.93 329.7 163.93 329.7 89.42 246.21 98.69 240.28 163.93 210.48 163.93 216.1 102.04 195.58 104.32 195.58 74.51 218.84 71.93 225.38 0 255.18 0 248.95 68.58 329.69 59.61 329.69 0 359.5 0 359.5 163.93"/>
      <polygon class="cls-1" points="455.71 22.95 528.14 14.91 528.14 44.71 458.4 52.46 464.33 117.69 557.94 104.32 557.94 134.13 467 147.12 468.53 163.93 438.72 163.93 428.89 55.73 394.02 59.61 394.02 29.81 426.2 26.23 423.82 0 453.62 0 455.71 22.95"/>
      <path class="cls-1" d="M646.24,89.45h-29.62v29.91h29.62v-29.91ZM586.71,0h163.93l-10.98,120.33,10.98-.98v29.62l-13.7,1.25-1.25,13.7h-29.62l.98-10.98-120.33,10.98v-89.44c0-8.34,6.62-14.96,14.96-14.96h74.49v66.48l33.57-3,8.33-93.1h-131.34V0Z"/>
      <polygon class="cls-1" points="816.01 57.47 940.46 29.82 940.46 59.62 813.25 87.89 811.65 105.51 940.46 134.13 940.46 163.93 808.99 134.72 806.34 163.93 776.53 163.93 791.43 0 821.24 0 816.01 57.47"/>
      <polygon class="cls-1" points="1127.99 120.22 1138.92 119.23 1138.92 149.03 1125.25 150.27 1124.01 163.93 1094.21 163.93 1095.2 153 974.99 163.93 974.99 0 1004.79 0 1004.79 131.42 1097.93 122.95 1109.1 0 1138.91 0 1127.99 120.22"/>
    </g>
  </g>
</svg>