<?xml version="1.0" encoding="UTF-8"?>
<svg id="Capa_2" data-name="Capa 2" xmlns="http://www.w3.org/2000/svg" viewBox="0 0 1211.25 530.27">
  <defs>
    <style>
      .cls-1 {
        fill: #e84134;
      }

      .cls-1, .cls-2, .cls-3 {
        stroke-width: 0px;
      }

      .cls-4, .cls-5 {
        stroke: #e84134;
        stroke-miterlimit: 10;
      }

      .cls-4, .cls-3 {
        fill: #fff;
      }

      .cls-2, .cls-5 {
        fill: #fdeff7;
      }
    </style>
  </defs>
  <g id="diseño">
    <g>
      <path class="cls-1" d="M26.94,229.81c-4.18,4.81-7.8,10.13-10.39,16.33-.95,2.28-1.68,4.71-2.38,7.07.7-2.36,1.43-4.79,2.38-7.07,2.59-6.2,6.21-11.52,10.38-16.33Z"/>
      <path class="cls-1" d="M1141.19,528.95c-6.56.85-13.3,1.05-19.95,1.16,6.65-.11,13.39-.3,19.95-1.16Z"/>
      <path class="cls-1" d="M741.09,203.51c-1.55.65-3.16,1.33-4.73,1.94-8.17,3.19-16.39,6.55-24.47,9.9,8.08-3.35,16.3-6.71,24.47-9.9,1.57-.61,3.18-1.29,4.73-1.94Z"/>
      <path class="cls-1" d="M240.7,145.93c-.85.22-1.69.44-2.53.67-1.72.46-3.46.92-5.21,1.35,1.75-.44,3.49-.9,5.21-1.35.84-.22,1.68-.45,2.53-.67Z"/>
      <path class="cls-1" d="M1035.47,511.81c1.03.12,2.06.24,3.09.37-1.03-.13-2.06-.25-3.09-.37Z"/>
      <path class="cls-1" d="M1108.89,530.27h0c-9.18,0-17.56-.47-25.42-1.44,7.85.96,16.24,1.44,25.42,1.44Z"/>
      <path class="cls-1" d="M795.68,310.37c1.75,5.63.94,12.43-.76,19.18,1.7-6.76,2.5-13.56.76-19.18Z"/>
      <path class="cls-1" d="M882.14,193.15c-1.24-.6-3.08-.84-5.85-.82,2.78-.02,4.61.22,5.85.82Z"/>
      <path class="cls-1" d="M702.69,317.89c.6,11.24,10.74,16.18,20.62,20.99,1.76.85,3.56,1.73,5.28,2.64-1.72-.91-3.53-1.78-5.28-2.64-9.89-4.81-20.02-9.75-20.62-20.99Z"/>
      <path class="cls-1" d="M72.38,196.96c-6.35,1.18-12.7,2.73-16.55,6.38-2.99,2.83-6.17,5.58-9.31,8.25,3.14-2.67,6.33-5.41,9.31-8.25,3.85-3.65,10.2-5.2,16.55-6.38Z"/>
      <path class="cls-1" d="M693.03,366.37c-.91.65-2.11.91-3.5.94,1.38-.03,2.59-.29,3.5-.94Z"/>
      <path class="cls-1" d="M860.67,293.63c.73,11.73,3.25,24.66,7.49,38.42-4.24-13.77-6.76-26.69-7.49-38.42-.39-6.27.34-12.69,1.39-19.05-1.05,6.37-1.78,12.79-1.39,19.06Z"/>
      <path class="cls-1" d="M702.22,219.37c-1.26.52-2.5,1.25-3.7,1.95-.26.15-.52.31-.78.46.26-.15.52-.3.79-.46,1.2-.7,2.44-1.43,3.7-1.95Z"/>
      <path class="cls-1" d="M784.19,304.13c1.01,4.03,1.83,8.1,1.95,12.11-.12-4.01-.95-8.08-1.95-12.11Z"/>
      <path class="cls-1" d="M639.67,285.07c3.1-3.65,5.82-7.71,8.45-11.65,2.65-3.96,5.39-8.06,8.51-11.72-3.13,3.66-5.87,7.76-8.52,11.73-2.63,3.93-5.34,7.99-8.44,11.64Z"/>
      <path class="cls-1" d="M629.64,282.45c-2.16,3.87-3.98,7.82-4.2,11.83-.15,2.7-.22,5.43-.2,8.17-.02-2.74.05-5.47.2-8.17.23-4.01,2.04-7.96,4.2-11.83Z"/>
      <path class="cls-1" d="M734.14,358.85c7.4-6.28,11.17-15.72,11.24-28.24-.07,12.52-3.84,21.96-11.24,28.24Z"/>
      <path class="cls-1" d="M713.92,307.91c0-1.94.1-3.9.19-5.9-.09,1.99-.18,3.96-.19,5.9Z"/>
      <path class="cls-1" d="M1143.24,528.66c-.53.08-1.07.15-1.6.23.53-.07,1.07-.14,1.6-.23Z"/>
      <path class="cls-1" d="M144.85,171.47c-3.36,1.49-6.68,3.04-9.95,4.66-7.68,3.81-15.29,7.14-22.91,10,7.62-2.87,15.23-6.2,22.91-10,3.27-1.62,6.59-3.18,9.95-4.66Z"/>
      <path class="cls-1" d="M933.58,454.18c-5.22-5.19-10.15-10.81-14.94-16.32,4.79,5.5,9.73,11.12,14.94,16.32Z"/>
      <path class="cls-1" d="M1046.59,458.89c2.34.66,4.71,1.32,7.06,1.93-2.36-.62-4.72-1.27-7.06-1.93Z"/>
      <path class="cls-1" d="M1040.14,462.71c-1.02-.68-2.05-1.34-3.08-1.93,1.03.59,2.06,1.25,3.08,1.93Z"/>
      <path class="cls-1" d="M1130.27,467.28c10.43-.98,17.53-5.22,25.07-10.25-7.55,5.03-14.64,9.28-25.07,10.25Z"/>
      <path class="cls-1" d="M372.93,152.5c-1.25.24-2.54.48-3.82.6,1.29-.12,2.58-.36,3.82-.59.58-.11,1.16-.22,1.74-.32l.11-.02-.11.02c-.58.1-1.16.21-1.74.32Z"/>
      <path class="cls-1" d="M1067.93,401.71c-.57-.95-1.21-1.88-1.86-2.79.65.91,1.29,1.84,1.86,2.79Z"/>
      <path class="cls-1" d="M1177.13,322.61c11.12,2.23,23.34,5.18,33.73,12.01-10.39-6.83-22.62-9.78-33.73-12.01Z"/>
      <path class="cls-1" d="M848.23,206.54c-2.36-.94-4.79-1.9-7.24-2.4,2.45.5,4.88,1.46,7.24,2.4Z"/>
      <path class="cls-1" d="M320.58,161.75c.83.15,1.66.3,2.49.46-.83-.15-1.66-.3-2.49-.46l-.43-1.83c1.37-.32,2.56-1.01,3.69-1.84-1.12.82-2.32,1.52-3.69,1.84l.43,1.83Z"/>
      <path class="cls-1" d="M339.59,154.9c2.07.43,4.46.24,6.79.04-2.33.19-4.71.39-6.79-.04Z"/>
      <path class="cls-1" d="M903.66,410.17c-6.9-8.8-12.36-17.62-16.24-26.27-4.07-9.06-7.9-18.6-11.56-28.77,3.66,10.17,7.49,19.71,11.56,28.77,3.89,8.65,9.35,17.47,16.25,26.27Z"/>
      <path class="cls-1" d="M940.24,449.11c-13.97-13.28-24.62-24.46-33.54-35.17,8.91,10.71,19.57,21.89,33.54,35.17Z"/>
      <path class="cls-1" d="M981.12,486.95c-.15-.25-.3-.5-.44-.75-.96-1.63-1.95-3.31-3.33-4.54,1.38,1.22,2.36,2.91,3.32,4.53.15.25.31.5.46.75Z"/>
      <path class="cls-1" d="M374.49,148.78l.21.02-.21-.02c-4.06-.45-8.19-.98-12.17-1.49-6.63-.85-13.42-1.72-20.21-2.28,6.79.56,13.59,1.43,20.21,2.28,3.99.51,8.12,1.04,12.18,1.49Z"/>
      <path class="cls-1" d="M334.3,144.51c-24.71-1.15-50.26-2.34-75.35-1.75,25.09-.59,50.64.59,75.35,1.75Z"/>
      <path class="cls-1" d="M1109.44,477.25c-1.24-.03-2.48-.09-3.72-.19,1.23.1,2.47.16,3.72.19Z"/>
      <path class="cls-1" d="M1167.19,506.75c1.28-1.07,3.02-1.6,4.7-2.12-1.68.51-3.42,1.04-4.7,2.12Z"/>
      <path class="cls-1" d="M981.79,488.04c-.15-.24-.3-.48-.45-.72.15.24.29.49.44.72,0,0,.01,0,.02,0Z"/>
      <path class="cls-1" d="M1174.53,377.52c1.25,1.08,2.45,2.23,3.61,3.43-1.16-1.19-2.36-2.34-3.61-3.43Z"/>
      <path class="cls-1" d="M1164.96,324.66c-1.82-.58-3.88-.94-6.16-1.1,2.28.15,4.34.51,6.16,1.1Z"/>
      <path class="cls-1" d="M242.46,274.69c-.9-.24-1.81-.46-2.72-.65-.74-.15-1.51-.24-2.3-.27.79.03,1.56.11,2.3.27.91.19,1.82.41,2.73.65Z"/>
      <path class="cls-1" d="M293.98,175.87c-4.06.5-8.26,1.02-12.35,1.42,4.1-.4,8.29-.92,12.35-1.42,12.05-1.48,24.48-3.02,36.37-1.81-11.89-1.21-24.32.32-36.36,1.81Z"/>
      <path class="cls-1" d="M221.62,279.35c3.65-3.05,9.99-5.65,15.46-5.57-5.46-.08-11.81,2.52-15.46,5.57-1.58,1.32-2.88,3.05-3.98,4.99,1.11-1.94,2.4-3.66,3.98-4.99Z"/>
      <path class="cls-1" d="M932.44,202.21c-11.26,12.09-21.53,29.01-23.6,51.46l-.04.46.04-.46c2.07-22.45,12.33-39.37,23.6-51.46Z"/>
      <path class="cls-1" d="M1021.29,164.65c-20.54-.07-40.09,4.69-57.79,14.07,17.7-9.38,37.26-14.14,57.79-14.07Z"/>
      <path class="cls-1" d="M332.71,174.34c26.43,3.55,53.02,9.35,78.73,14.96,5.58,1.22,11.16,2.43,16.74,3.63-5.58-1.19-11.15-2.41-16.73-3.62-25.71-5.61-52.31-11.4-78.74-14.96Z"/>
      <path class="cls-1" d="M900.99,295.77c1.05,11.93,2.68,24.4,4.93,37.8,1.25,7.46,2.72,15.18,5.45,22.1-2.74-6.92-4.2-14.64-5.45-22.1-2.25-13.4-3.88-25.87-4.93-37.8Z"/>
      <path class="cls-1" d="M266.51,285.25l-1.53-.8c-2.19-1.14-4.4-2.3-6.63-3.41,2.23,1.11,4.44,2.26,6.63,3.4l1.53.8Z"/>
      <path class="cls-1" d="M118.75,281.14c.46,1.04.91,2.08,1.36,3.12,3.19,7.34,6.5,14.93,11.06,21.5-4.57-6.57-7.87-14.16-11.07-21.5-.45-1.04-.91-2.08-1.36-3.11Z"/>
      <path class="cls-1" d="M251.04,345.69c-4.39,3.21-8.92,5.75-13.57,7.62,4.65-1.87,9.18-4.41,13.57-7.62,12.03-8.81,23.84-18.87,24.62-36.37.08-1.74.16-3.49.16-5.22,0,1.73-.09,3.48-.16,5.22-.78,17.5-12.59,27.56-24.62,36.37Z"/>
      <polygon class="cls-1" points="1036.09 168.59 1035.62 166.82 1036.08 168.59 1036.09 168.59"/>
      <path class="cls-1" d="M666.34,250.9c3.14-3.12,6.49-5.91,10.19-7.99-3.7,2.08-7.04,4.87-10.19,7.99Z"/>
      <path class="cls-1" d="M900.13,284.01c-.04-.77-.06-1.55-.04-2.33-.02.78,0,1.56.04,2.33Z"/>
      <path class="cls-1" d="M912.08,357.38c-.07-.16-.13-.32-.2-.48.07.16.13.32.2.48Z"/>
      <path class="cls-1" d="M969.8,421.84c-8.35-6.99-15.63-14.72-21.83-23.12,6.2,8.4,13.48,16.13,21.83,23.12Z"/>
      <path class="cls-1" d="M183.44,212.55c1.24-1.12,2.47-2.25,3.66-3.41,7.12-6.94,17.22-14.85,34.87-20.56-17.66,5.71-27.75,13.62-34.87,20.56-1.19,1.16-2.42,2.29-3.66,3.41Z"/>
      <path class="cls-1" d="M912.02,261.07c0,.56-.07,1.04-.21,1.47.14-.43.2-.91.21-1.47Z"/>
      <path class="cls-1" d="M212.09,298.15c-1.68,4.19-3.49,6.44-5.75,7.2,2.26-.76,4.06-3.01,5.75-7.2Z"/>
      <path class="cls-1" d="M196.42,302.38c3.23,2.14,5.81,3.21,7.94,3.26-2.13-.05-4.71-1.12-7.93-3.26-2.64-1.75-5.35-3.5-7.96-5.2-3.97-2.57-7.99-5.18-11.95-7.89,3.97,2.71,7.99,5.32,11.96,7.89,2.62,1.7,5.32,3.45,7.96,5.2Z"/>
      <path class="cls-1" d="M150.43,254.1c0-.13,0-.26,0-.39h0c0,.13,0,.26,0,.39Z"/>
      <path class="cls-1" d="M900.1,281.6c.09-3.94.87-7.93,1.84-11.88-.97,3.95-1.76,7.94-1.84,11.88Z"/>
      <path class="cls-1" d="M852.41,323.22c4.76,16.04,12,31.64,19.01,46.72.52,1.12,1.05,2.27,1.58,3.41-.53-1.13-1.05-2.28-1.57-3.39-7.01-15.08-14.26-30.68-19.02-46.73Z"/>
      <path class="cls-1" d="M727.54,331.9c.36.13.71.26,1.07.36-.36-.1-.72-.23-1.07-.36Z"/>
      <path class="cls-1" d="M68.46,400.85c7.47,2.28,15.66,2.99,23.63,3.69,1.25.11,2.5.22,3.73.33-1.24-.11-2.48-.22-3.73-.33-7.97-.69-16.15-1.41-23.63-3.69Z"/>
      <path class="cls-1" d="M1200.36,499.02c-1.91.76-3.61,1.96-5.27,3.36,1.65-1.4,3.35-2.6,5.27-3.36Z"/>
      <path class="cls-1" d="M22.16,366.11c13.86,16.23,26.97,26.68,41.26,32.89-14.29-6.21-27.4-16.67-41.26-32.89Z"/>
      <path class="cls-1" d="M819.14,202.95c3.3,0,6.62.07,9.96.21-3.34-.14-6.67-.2-9.96-.21Z"/>
      <path class="cls-1" d="M851.19,276.19c0,.88-.04,1.74-.17,2.57.13-.83.17-1.69.17-2.57Z"/>
      <path class="cls-1" d="M1145.28,528.32c-.5.09-1.01.17-1.51.25.5-.08,1.01-.16,1.51-.25Z"/>
      <path class="cls-1" d="M743.85,401.41c13.17-8.75,23.89-18.31,31.86-28.42,6.78-8.6,11.23-19.36,14.77-29.4-3.55,10.04-8,20.81-14.77,29.4-7.97,10.11-18.7,19.67-31.86,28.42Z"/>
      <path class="cls-1" d="M581.96,328.62c6.01.02,9.06,2.74,13.48,10.1-4.42-7.35-7.47-10.07-13.48-10.1Z"/>
      <path class="cls-1" d="M55.18,333.98c-5.11-13.99-3.62-28.26,4.67-44.92-8.3,16.66-9.78,30.93-4.67,44.92Z"/>
      <path class="cls-1" d="M939.09,212.28c14.08-17.12,33.17-25.28,54.97-32.12-21.81,6.85-40.89,15.01-54.97,32.12Z"/>
      <path class="cls-1" d="M74.65,342.66c4.05-1.8,8.22-3.36,12.23-4.72-4.01,1.37-8.18,2.92-12.23,4.72-3.48,1.55-6.94,1.86-10.09.93,3.15.94,6.61.62,10.09-.93Z"/>
      <path class="cls-1" d="M59.85,289.05c7.89-15.84,20.45-28.67,37.37-38.27-16.92,9.6-29.48,22.43-37.37,38.27Z"/>
      <path class="cls-1" d="M992.22,497.47c1.53-.43,3.3-1.05,5.34-1.83l.57-.22h0s-.57.22-.57.22c-2.04.78-3.8,1.4-5.34,1.83Z"/>
      <path class="cls-1" d="M119.38,356.39c1.19,3.39,1.82,6.93,1.89,10.51-.08-3.59-.7-7.12-1.89-10.52-2.57-7.34-7.68-13.51-14.57-17.72,6.89,4.22,12,10.38,14.57,17.73Z"/>
      <path class="cls-1" d="M505.2,218.37c.42,2.58.19,5.61-.6,8.61.78-3.01,1.02-6.04.6-8.61Z"/>
      <path class="cls-1" d="M115.46,262.17c.74,2.99,1.46,6,2.14,9.06.3,1.35.32,2.82.34,4.25-.02-1.43-.04-2.9-.34-4.25-.69-3.06-1.41-6.07-2.14-9.06Z"/>
      <path class="cls-1" d="M498.65,210.13c2.89.8,6.07,5.28,6.55,8.24-.48-2.96-3.66-7.44-6.55-8.24Z"/>
      <path class="cls-1" d="M761.9,372.95c-13.52,15.88-31.64,26.11-55.4,31.27,23.76-5.16,41.88-15.39,55.4-31.27Z"/>
      <path class="cls-1" d="M1145.51,528.28c1.95-.35,3.88-.78,5.78-1.29,7.92-2.13,15.49-5.91,22.85-9.96-7.35,4.05-14.93,7.83-22.85,9.96-1.9.51-3.83.93-5.78,1.29Z"/>
      <path class="cls-1" d="M1108.95,520.81c-16.03-.36-32.29-2.9-48.02-5.36-3.44-.54-6.94-1.09-10.46-1.61,3.52.53,7.02,1.07,10.46,1.61,15.72,2.46,31.99,5,48.02,5.36Z"/>
      <path class="cls-1" d="M1029.19,515.1c1.96.6,3.91,1.21,5.86,1.83,4.31,1.36,8.76,2.77,13.2,3.92-4.44-1.15-8.89-2.56-13.19-3.92-1.96-.62-3.91-1.24-5.87-1.83Z"/>
      <path class="cls-1" d="M155.41,237c1.42-2.13,3.12-4.04,5.08-5.68,2.99-2.5,6.11-4.96,9.12-7.35-3.01,2.38-6.13,4.85-9.12,7.35-1.95,1.63-3.66,3.55-5.08,5.68Z"/>
      <path class="cls-1" d="M1048.26,520.85c2.35.61,4.7,1.25,7.05,1.88,8.09,2.19,16.45,4.45,24.83,5.65-8.38-1.2-16.74-3.46-24.82-5.65-2.35-.64-4.71-1.27-7.06-1.89Z"/>
      <path class="cls-1" d="M1182.1,512.56c.86-.49,1.72-.97,2.58-1.45.37-.21.73-.43,1.09-.66-.36.23-.72.45-1.08.66-.86.48-1.72.97-2.58,1.45Z"/>
      <path class="cls-1" d="M505.78,297.66c-.22-.4-.42-.81-.63-1.22.21.41.41.83.63,1.22Z"/>
      <path class="cls-1" d="M562.05,331.39c-3.75.03-7.64-.76-11.77-3.34,4.13,2.57,8.02,3.37,11.77,3.34Z"/>
      <path class="cls-1" d="M504.92,295.96c-.56-1.16-1.07-2.4-1.53-3.73.47,1.33.98,2.56,1.53,3.73Z"/>
      <path class="cls-1" d="M685.11,415.84h0c-.77,0-1.56-.1-2.36-.24.8.14,1.58.24,2.36.24Z"/>
      <path class="cls-1" d="M665.42,408.7c-2.35-.78-4.79-1.5-7.15-2.2,2.36.7,4.8,1.42,7.15,2.2Z"/>
      <path class="cls-1" d="M1142.7,367.52c-3.53-.45-7.1-.99-10.5-1.84-.05-.01-.1,0-.15-.02.05.01.1,0,.15.02,3.4.86,6.97,1.39,10.5,1.84Z"/>
      <path class="cls-1" d="M1078.82,346.08c-.17.11-.33.23-.49.37.16-.13.32-.26.49-.37,2.5-1.58,4.99-3.38,7.4-5.12,4.69-3.39,9.51-6.88,14.67-8.9-5.17,2.02-9.99,5.5-14.67,8.9-2.41,1.74-4.9,3.55-7.4,5.12Z"/>
      <path class="cls-1" d="M1127.47,366.44s.04-.02.09-.04c.18-.08.35-.13.53-.2-.18.07-.34.11-.53.19-.06.03-.1.04-.1.04l-.14.03-10.46,26.33,10.46-26.32.13-.03Z"/>
      <path class="cls-1" d="M1195.22,401.42c2.1,2.37,3.36,4.7,4.05,7.02-.69-2.32-1.94-4.65-4.05-7.02-2.52-2.84-4.93-5.9-7.26-8.86-3.09-3.93-6.27-7.96-9.79-11.58,3.52,3.62,6.69,7.65,9.78,11.58,2.33,2.96,4.74,6.02,7.26,8.86Z"/>
      <path class="cls-1" d="M600.78,323.71c-.24-1.05-.36-2-.36-2.9,0,.9.13,1.85.36,2.9Z"/>
      <path class="cls-1" d="M662.72,401.87c-1.53-.71-3.17-1.4-4.74-2.06-3.95-1.65-8-3.35-11.23-5.73,3.23,2.38,7.28,4.08,11.23,5.73,1.58.66,3.21,1.35,4.75,2.06Z"/>
      <path class="cls-1" d="M1078.2,346.57s.05-.06.09-.09c-.03.03-.06.06-.09.09Z"/>
      <path class="cls-1" d="M1102.57,391.93c-.22-.94-.46-1.98-.67-3.11.21,1.13.45,2.17.67,3.11.51,2.19.9,3.85.55,5.03.35-1.18-.04-2.84-.55-5.03Z"/>
      <path class="cls-1" d="M1073.83,362.03c.25-1.04.51-2.09.77-3.13.5-2.01,1.02-4.09,1.45-6.12-.43,2.03-.95,4.11-1.45,6.12-.26,1.04-.52,2.08-.77,3.13Z"/>
      <path class="cls-1" d="M685.81,406.73c-7.48-.03-15.36-1.28-23.08-4.86,7.72,3.58,15.6,4.83,23.08,4.86Z"/>
      <path class="cls-1" d="M236.97,353.52c-.15.06-.31.11-.46.17.15-.06.31-.11.46-.17Z"/>
      <path class="cls-1" d="M578.29,269.41c-.75.33-1.49.71-2.21,1.14.72-.43,1.46-.82,2.21-1.14Z"/>
      <path class="cls-1" d="M640.93,232.55c-3.04,2.57-6,5.11-8.88,7.66,2.88-2.55,5.84-5.08,8.88-7.66Z"/>
      <path class="cls-1" d="M618.73,258.72c-.11.15-.22.3-.33.45.11-.15.22-.3.33-.45Z"/>
      <path class="cls-1" d="M179.51,215.97c-1.8,1.52-3.62,3.01-5.44,4.47,1.82-1.46,3.64-2.95,5.44-4.47Z"/>
      <path class="cls-1" d="M580.13,320.32c.68-.31,1.35-.64,2.01-1-.66.36-1.33.69-2.01,1Z"/>
      <path class="cls-1" d="M393.69,176.34c4.71,1.05,9.44,2.13,14.17,3.21-4.73-1.09-9.46-2.16-14.17-3.21Z"/>
      <path class="cls-1" d="M772,283.19c1.4.38,2.75.85,4.04,1.42-1.29-.57-2.64-1.04-4.04-1.42Z"/>
      <path class="cls-1" d="M613.84,286.51c.2.44.4.89.58,1.35-.18-.46-.37-.9-.58-1.35Z"/>
      <path class="cls-1" d="M600.98,324.52c.15.55.32,1.13.51,1.75-.2-.62-.37-1.2-.51-1.75Z"/>
      <path class="cls-1" d="M614.91,289.24c.53,1.64.85,3.35.86,5.11,0-1.77-.34-3.48-.86-5.11Z"/>
      <path class="cls-1" d="M531.73,207.78c-.91,1.47-1.84,2.98-2.79,4.53.95-1.55,1.88-3.06,2.79-4.53Z"/>
      <path class="cls-1" d="M206.45,356.19c-.25-.05-.5-.1-.75-.15.25.05.5.11.75.15Z"/>
      <path class="cls-1" d="M1045.29,466.1c2.22,1.36,4.5,2.5,6.9,2.96,15.36,2.98,28.83,5.34,41.97,6.87-13.14-1.53-26.6-3.89-41.96-6.87-2.4-.46-4.69-1.61-6.9-2.96Z"/>
      <path class="cls-1" d="M200.4,354.76s-.07-.02-.1-.03c.03,0,.07.02.1.03Z"/>
      <path class="cls-1" d="M155.38,237.04c-.07.1-.13.21-.2.32.07-.1.13-.21.2-.32Z"/>
      <polygon class="cls-1" points="374.89 152.15 374.7 148.8 374.89 152.15 374.89 152.15"/>
      <path class="cls-1" d="M118.5,280.49c-.51-1.55-.53-3.31-.55-5.01.02,1.7.05,3.45.55,5.01Z"/>
      <path class="cls-1" d="M10.07,264.17c1.74-3.03,2.8-6.52,3.81-9.92-1,3.41-2.07,6.89-3.81,9.92Z"/>
      <path class="cls-1" d="M106.95,399.55c-2.55,2.65-6.95,5.29-10.44,5.34,3.49-.05,7.89-2.69,10.44-5.34Z"/>
      <path class="cls-1" d="M102.29,248.04c-.24.12-.47.25-.7.37.24-.12.46-.25.7-.37Z"/>
      <path class="cls-1" d="M1048.75,164.88c-2,.21-4.16.44-6.55.72,2.39-.28,4.55-.5,6.55-.72Z"/>
      <path class="cls-1" d="M533.68,204.66l-.38-.06c-.47-.07-.94-.14-1.41-.22.47.07.94.14,1.41.22l.38.06Z"/>
      <path class="cls-1" d="M1068.39,155.58c4.79-.95,9.55-4.26,14.17-7.48-4.62,3.22-9.38,6.53-14.17,7.48Z"/>
      <path class="cls-1" d="M711.47,222.42c-4.68,2.35-9.21,4.96-13.66,7.64,4.45-2.68,8.98-5.29,13.66-7.64Z"/>
      <path class="cls-1" d="M1052.16,158.88c4.3-1.88,8.76-2.78,14.18-3.04-5.42.25-9.88,1.16-14.18,3.04Z"/>
      <path class="cls-1" d="M393.69,176.34c-12.91-2.88-26.1-5.5-38.85-8.04-3.69-.73-7.38-1.47-11.07-2.21,3.68.74,7.36,1.47,11.04,2.2,12.76,2.54,25.96,5.16,38.88,8.04Z"/>
      <path class="cls-1" d="M549.97,319.68c-19.23-7.09-32.05-18.39-38.15-33.62,6.1,15.23,18.93,26.53,38.15,33.62Z"/>
      <path class="cls-1" d="M1142.23,373.5c15.52-1.11,26.14,8.34,36.4,17.5-10.26-9.16-20.89-18.62-36.4-17.5Z"/>
      <path class="cls-1" d="M688.31,235.89c-3.87,2.38-7.82,4.78-11.79,7.02,3.97-2.23,7.92-4.63,11.79-7.02Z"/>
      <path class="cls-1" d="M777.68,196.56c.3-.03.6-.05.9-.08-.3.03-.6.05-.9.08Z"/>
      <path class="cls-1" d="M1059.46,163.56c2.57-.41,5.21-.78,7.76-1.14,7.45-1.05,15.16-2.13,22.4-4.35-7.24,2.22-14.95,3.3-22.4,4.35-2.55.36-5.18.73-7.76,1.14Z"/>
      <path class="cls-1" d="M870.35,240.05c-2.23,6.64-4.42,13.65-5.78,20.88,1.35-7.21,3.62-14.44,5.78-20.88Z"/>
      <path class="cls-1" d="M1163.64,113.96c-2.37,1.09-4.67,2.41-6.91,3.79,2.24-1.37,4.54-2.69,6.91-3.79Z"/>
      <path class="cls-1" d="M885.1,202.99c-.05-4.58-.19-7.48-1.82-9.06,1.63,1.58,1.78,4.48,1.82,9.06h0Z"/>
      <path class="cls-1" d="M1165.21,113.28c-.49.2-.97.41-1.46.63.48-.22.97-.43,1.46-.63Z"/>
      <path class="cls-1" d="M1155.44,118.54s-.05.03-.08.05c.02-.02.05-.03.08-.05Z"/>
      <path class="cls-1" d="M523.94,203.2c-2.06-.3-4.11-.59-6.14-.88-7.79-1.11-15.76-2.25-23.7-3.62,7.94,1.37,15.91,2.51,23.7,3.62,2.03.29,4.08.58,6.14.88Z"/>
      <path class="cls-1" d="M1059.46,163.56c-3.35.53-6.76.9-10.71,1.32,3.95-.42,7.37-.78,10.71-1.32Z"/>
      <path class="cls-1" d="M759.71,207.25c-4.59.7-9.16,2.12-13.58,3.53,4.42-1.4,8.99-2.83,13.58-3.53Z"/>
      <path class="cls-1" d="M1154.01,119.43s0,0,0,0c-1.08.68-2.17,1.36-3.26,2.02,1.09-.66,2.17-1.33,3.25-2.01Z"/>
      <path class="cls-1" d="M506.12,261.41c-.2-9.58,2.49-18.05,8.11-26.11,4.48-6.42,8.53-12.95,12.45-19.32-3.91,6.37-7.97,12.89-12.45,19.32-5.62,8.06-8.31,16.54-8.11,26.11Z"/>
      <path class="cls-1" d="M722.7,329.12c.9.74,1.82,1.37,2.77,1.89-.95-.51-1.87-1.15-2.77-1.89Z"/>
      <path class="cls-1" d="M683.57,372.42c-12.88.24-25.31-3.81-35.26-11.52,9.95,7.71,22.38,11.76,35.26,11.52Z"/>
      <path class="cls-1" d="M725.51,331.02c.5.27,1,.5,1.52.71-.51-.21-1.02-.44-1.52-.71Z"/>
      <path class="cls-1" d="M654.23,219.16c-1.57-.32-3.03-.65-4.45-.97-3.71-.84-6.91-1.57-10.12-1.59,3.21.03,6.41.75,10.12,1.59,1.42.32,2.88.65,4.45.97Z"/>
      <path class="cls-1" d="M757.15,198.5c4.19-.43,8.44-.84,12.74-1.24-4.31.4-8.55.81-12.74,1.24Z"/>
      <path class="cls-1" d="M1071.6,341.09c1-.93,2.04-1.88,3.01-2.84-.97.95-2,1.91-3,2.84-2.28,2.11-4.61,4.28-6.49,6.68,1.89-2.4,4.21-4.57,6.49-6.68Z"/>
      <path class="cls-1" d="M568.55,282.9c-.15,2.45-.66,4.47-1.54,6.04.88-1.57,1.39-3.59,1.54-6.03.36-5.94,3.59-9.96,7.53-12.35-3.94,2.39-7.17,6.41-7.53,12.35Z"/>
      <path class="cls-1" d="M729.89,332.53c.12.02.24.06.36.08-.12-.02-.24-.05-.36-.08Z"/>
      <path class="cls-1" d="M647.71,226.83c.28-.23.54-.46.82-.69.1-.09.22-.18.32-.27-.11.09-.22.18-.33.27-.28.23-.54.45-.82.68Z"/>
      <path class="cls-1" d="M627.8,245.46c-.35.52-.71,1.04-1.07,1.54.36-.5.71-1.02,1.07-1.54,1.28-1.86,2.59-3.79,4.25-5.25-1.65,1.46-2.97,3.39-4.25,5.25Z"/>
      <path class="cls-1" d="M706.65,368.87c-6.69,1.48-13.61,3.01-20.5,3.44,6.88-.43,13.8-1.96,20.5-3.44Z"/>
      <path class="cls-1" d="M1069.51,405.49c.01.19.01.37-.01.55.02-.18.03-.36.01-.55Z"/>
      <path class="cls-1" d="M721.92,328.43c.2.18.4.38.6.55-.2-.17-.4-.37-.6-.55Z"/>
      <path class="cls-1" d="M772.39,197.03c.61-.05,1.21-.11,1.82-.17-.61.05-1.21.11-1.82.17Z"/>
      <path class="cls-1" d="M1130.55,317.82c-8.12-.24-16.38,1.06-24.39,2.31,8.01-1.26,16.28-2.55,24.39-2.31Z"/>
      <path class="cls-2" d="M1156.66,26.73c-3.16,2.22-6.44,4.52-9.73,6.7-8.53,5.64-17.45,11-26.08,16.18-3.42,2.05-6.85,4.11-10.25,6.19-1.74,1.06-3.47,2.14-5.2,3.22-4.77,2.97-9.69,6.04-14.75,8.67-2,1.04-4.04,2.13-6,3.18-7.65,4.1-15.57,8.34-23.86,10.86-9.45,2.87-19.25,5.1-28.74,7.26-8.51,1.94-17.32,3.94-25.83,6.4-15.38,4.44-30.9,9.35-45.91,14.09-11.94,3.78-24.29,7.68-36.5,11.33-8.19,2.45-16.59,4.69-24.71,6.86-13.53,3.62-27.52,7.35-40.89,12.12-2.29.82-4.89,1.33-7.41,1.82-7.1,1.38-14.43,2.82-16.81,11.25l-.05.18h-.19c-1.65.02-3.24-.07-4.77-.15-3.12-.15-6.06-.3-8.74.36-9.7,2.41-19.36,5.54-28.42,8.54-4.74,1.57-9.52,3.28-14.15,4.93-6.4,2.28-13.01,4.64-19.61,6.68-1.97.61-4.16.52-6.28.44-1.92-.08-3.91-.15-5.71.29-3.98.99-7.97,2.24-11.83,3.45-4.83,1.51-9.83,3.08-14.85,4.14-2.14.46-4.55.06-6.89-.32-2.8-.46-5.44-.89-7.46.1-14.41,7.07-29.74,6.87-44.56,6.67-6.02-.08-12.24-.16-18.3.25-7.68.52-15.57-.44-23.2-1.36-4.79-.58-9.75-1.18-14.61-1.42-3.7-.18-7.42-.02-11.02.12-8,.33-16.27.66-24.83-2.55-13-4.88-26.85-8.16-40.25-11.34-5.9-1.4-12-2.84-17.96-4.41-4.47-1.17-8.99-2.49-13.37-3.77-9.06-2.64-18.44-5.38-27.84-6.96-20.67-3.49-41.83-6.27-62.28-8.96-6.33-.83-12.67-1.66-19-2.52-1.06-.15-2.25.22-3.75.68-.69.21-1.46.45-2.33.67.68.56,1.24,1.09,1.74,1.56.98.91,1.68,1.57,2.41,1.69,7.21,1.13,14.54,2.21,21.64,3.24,11.03,1.62,22.44,3.28,33.62,5.21,10.15,1.75,20.39,3.93,30.3,6.04,4.86,1.03,9.89,2.1,14.85,3.11,1.89.38,3.84.68,5.73.97,3.65.55,7.42,1.12,10.91,2.35,8.08,2.83,16.24,5.88,24.13,8.83,11.52,4.3,23.43,8.75,35.32,12.61,6.11,1.99,12.77,2.69,19.21,3.36,2.61.27,5.3.56,7.93.92,2.72.38,5.49.86,8.17,1.33,6.58,1.15,13.39,2.34,20,2.05,12.28-.54,24.74-1.88,36.78-3.18,5.87-.63,11.93-1.29,17.91-1.84,5.37-.5,10.84-.92,16.13-1.33,9.64-.75,19.61-1.52,29.35-2.77,1.48-.19,2.98-.37,4.5-.54,8.92-1.04,18.15-2.12,25.13-6.45,6.39-3.96,12.43-4.91,18.82-5.92.82-.13,1.66-.26,2.49-.4,1.28-.21,2.57-.41,3.86-.61,4.96-.77,10.08-1.56,14.88-3.07,5.49-1.72,10.99-3.73,16.31-5.67,6.48-2.37,13.19-4.81,19.92-6.76,9.78-2.83,19.8-5.41,29.49-7.91,10.82-2.79,22-5.67,32.88-8.9,13.15-3.9,26.42-8.23,39.26-12.42,10.78-3.51,21.92-7.15,32.94-10.51,12.72-3.88,25.83-7.24,38.51-10.48,2.12-.54,4.25-1.09,6.37-1.63,2.96-.76,6.03-1.33,8.99-1.87,3.67-.68,7.46-1.38,11.06-2.45,8.95-2.67,17.99-5.58,26.73-8.4,5.76-1.86,11.72-3.78,17.61-5.62,1.4-.44,2.89-.65,4.33-.86,1.85-.27,3.76-.54,5.42-1.29l2.35-1.05c11.31-5.07,23.01-10.31,34.12-16.2,8.36-4.43,16.99-9.76,28-17.27,4.34-2.96,8.6-6.23,12.71-9.39,6.43-4.93,13.08-10.04,20.18-14.09,6.48-3.7,13.54-6.63,20.37-9.46,5.37-2.23,10.89-4.54,16.15-7.22V.53c-7.49,2.42-14.88,5.06-22.18,7.66-12.21,4.36-22.48,11.57-32.41,18.54Z"/>
      <path class="cls-1" d="M1211.25,14.33c-5.26,2.67-10.77,4.99-16.15,7.22-6.83,2.83-13.89,5.75-20.37,9.46-7.1,4.05-13.75,9.16-20.18,14.09-4.12,3.16-8.38,6.43-12.71,9.39-11.01,7.52-19.64,12.84-28,17.27-11.11,5.89-22.81,11.13-34.12,16.2l-2.35,1.05c-1.66.74-3.57,1.02-5.42,1.29-1.44.21-2.94.42-4.33.86-5.88,1.83-11.84,3.76-17.61,5.62-8.74,2.82-17.78,5.74-26.73,8.4-3.61,1.07-7.4,1.77-11.06,2.45-2.96.55-6.03,1.11-8.99,1.87-2.12.55-4.25,1.09-6.37,1.63-12.68,3.24-25.79,6.6-38.51,10.48-11.02,3.37-22.17,7-32.94,10.51-12.83,4.18-26.1,8.51-39.26,12.42-10.88,3.23-22.07,6.11-32.88,8.9-9.69,2.5-19.71,5.08-29.49,7.91-6.73,1.95-13.43,4.39-19.92,6.76-5.32,1.94-10.82,3.95-16.31,5.67-4.8,1.5-9.93,2.3-14.88,3.07-1.29.2-2.58.4-3.86.61-.84.14-1.67.27-2.49.4-6.4,1.01-12.44,1.96-18.82,5.92-6.98,4.33-16.21,5.41-25.13,6.45-1.51.18-3.02.35-4.5.54-9.74,1.25-19.71,2.02-29.35,2.77-5.29.41-10.76.83-16.13,1.33-5.97.55-12.04,1.21-17.91,1.84-12.05,1.3-24.5,2.64-36.78,3.18-6.62.29-13.42-.9-20-2.05-2.68-.47-5.45-.95-8.17-1.33-2.62-.36-5.32-.65-7.93-.92-6.44-.68-13.1-1.38-19.21-3.36-11.88-3.86-23.79-8.31-35.32-12.61-7.89-2.95-16.05-5.99-24.13-8.83-3.49-1.22-7.26-1.8-10.91-2.35-1.89-.29-3.84-.58-5.73-.97-4.95-1-9.98-2.08-14.85-3.11-9.91-2.11-20.15-4.29-30.3-6.04-11.17-1.93-22.58-3.6-33.62-5.21-7.1-1.04-14.44-2.11-21.64-3.24-.73-.11-1.43-.77-2.41-1.69-.5-.47-1.06-.99-1.74-1.56.87-.22,1.64-.46,2.33-.67,1.5-.46,2.68-.83,3.75-.68,6.33.85,12.67,1.68,19,2.52,20.46,2.68,41.61,5.46,62.28,8.96,9.4,1.59,18.77,4.32,27.84,6.96,4.37,1.27,8.9,2.59,13.37,3.77,5.95,1.56,12.05,3.01,17.96,4.41,13.4,3.17,27.25,6.46,40.25,11.34,8.57,3.21,16.83,2.88,24.83,2.55,3.6-.15,7.33-.3,11.02-.12,4.86.23,9.82.83,14.61,1.42,7.63.93,15.52,1.89,23.2,1.36,6.05-.41,12.28-.33,18.3-.25,14.83.19,30.15.39,44.56-6.67,2.02-.99,4.66-.56,7.46-.1,2.33.38,4.75.78,6.89.32,5.02-1.07,10.02-2.63,14.85-4.14,3.86-1.21,7.85-2.46,11.83-3.45,1.8-.45,3.79-.37,5.71-.29,2.12.08,4.31.17,6.28-.44,6.6-2.03,13.22-4.39,19.61-6.68,4.63-1.65,9.41-3.36,14.15-4.93,9.06-3,18.72-6.13,28.42-8.54,2.68-.67,5.62-.52,8.74-.36,1.53.08,3.12.16,4.77.15h.19s.05-.18.05-.18c2.38-8.44,9.71-9.87,16.81-11.25,2.51-.49,5.12-1,7.41-1.82,13.37-4.77,27.36-8.51,40.89-12.12,8.12-2.17,16.53-4.42,24.71-6.86,12.21-3.65,24.56-7.55,36.5-11.33,15.01-4.75,30.53-9.65,45.91-14.09,8.51-2.46,17.32-4.46,25.83-6.4,9.48-2.16,19.29-4.39,28.74-7.26,8.29-2.52,16.21-6.76,23.86-10.86,1.97-1.05,4-2.14,6-3.18,5.06-2.63,9.99-5.7,14.75-8.67,1.73-1.08,3.46-2.16,5.2-3.22,3.41-2.08,6.83-4.13,10.25-6.19,8.63-5.18,17.55-10.54,26.08-16.18,3.3-2.18,6.57-4.48,9.73-6.7,9.93-6.97,20.2-14.19,32.41-18.54,7.31-2.61,14.69-5.24,22.18-7.66v-.53c-7.55,2.44-14.99,5.09-22.35,7.72-12.27,4.38-22.57,11.61-32.53,18.6-3.16,2.22-6.43,4.52-9.72,6.69-8.52,5.64-17.44,10.99-26.06,16.17-3.42,2.06-6.85,4.11-10.26,6.19-1.74,1.06-3.47,2.14-5.21,3.22-4.76,2.97-9.68,6.03-14.72,8.65-2.01,1.04-4.04,2.13-6.01,3.19-7.63,4.09-15.53,8.32-23.77,10.83-9.43,2.87-19.23,5.1-28.71,7.25-8.52,1.94-17.33,3.94-25.86,6.41-15.38,4.44-30.91,9.35-45.92,14.1-11.94,3.77-24.29,7.68-36.49,11.32-8.18,2.44-16.58,4.69-24.7,6.86-13.54,3.62-27.54,7.36-40.93,12.14-2.26.8-4.72,1.29-7.33,1.79-7.19,1.4-14.63,2.85-17.14,11.43h-.02c-1.57,0-3.07-.07-4.53-.15-3.15-.16-6.13-.31-8.88.38-9.72,2.41-19.39,5.55-28.46,8.55-4.74,1.57-9.53,3.28-14.16,4.93-6.39,2.28-13,4.64-19.59,6.67-1.89.58-4.04.5-6.11.42-1.96-.08-3.98-.16-5.85.31-3.99.99-7.99,2.24-11.85,3.45-4.82,1.51-9.8,3.07-14.8,4.13-2.05.43-4.41.05-6.7-.33-2.88-.47-5.6-.92-7.76.14-14.3,7.02-29.57,6.81-44.33,6.62-6.03-.08-12.26-.16-18.34.25-7.63.52-15.5-.44-23.1-1.36-4.8-.58-9.77-1.19-14.65-1.42-3.72-.18-7.46-.03-11.07.12-7.95.33-16.17.66-24.64-2.52-13.03-4.89-26.9-8.18-40.31-11.35-5.9-1.4-12-2.84-17.94-4.41-4.47-1.17-8.98-2.49-13.36-3.76-9.08-2.65-18.47-5.38-27.89-6.98-20.68-3.5-41.84-6.27-62.3-8.96-6.33-.83-12.67-1.66-19-2.52-1.18-.16-2.41.22-3.96.7-.81.25-1.74.53-2.79.78l-.5.12.4.32c.84.67,1.51,1.3,2.1,1.85,1.04.97,1.79,1.68,2.67,1.82,7.21,1.13,14.55,2.21,21.65,3.25,11.03,1.61,22.44,3.28,33.61,5.21,10.14,1.75,20.38,3.93,30.28,6.03,4.86,1.03,9.89,2.1,14.85,3.11,1.9.39,3.86.68,5.76.97,3.62.55,7.37,1.12,10.82,2.33,8.08,2.83,16.24,5.88,24.12,8.82,11.53,4.3,23.44,8.75,35.34,12.62,6.16,2,12.85,2.7,19.31,3.38,2.6.27,5.3.56,7.91.92,2.71.38,5.48.86,8.16,1.33,5.92,1.04,12.02,2.1,18.02,2.1.7,0,1.4-.01,2.09-.04,12.3-.54,24.76-1.89,36.82-3.19,5.87-.63,11.93-1.29,17.9-1.84,5.37-.5,10.83-.92,16.12-1.33,9.65-.75,19.62-1.52,29.37-2.77,1.48-.19,2.98-.37,4.49-.54,8.98-1.05,18.26-2.14,25.34-6.52,6.3-3.91,12.29-4.85,18.64-5.85.83-.13,1.66-.26,2.5-.4,1.28-.21,2.57-.41,3.86-.61,4.97-.77,10.12-1.57,14.96-3.08,5.5-1.72,11-3.73,16.33-5.68,6.47-2.36,13.17-4.81,19.88-6.75,9.77-2.82,19.79-5.41,29.48-7.91,10.82-2.79,22.01-5.68,32.9-8.91,13.16-3.91,26.43-8.23,39.27-12.42,10.77-3.51,21.92-7.15,32.93-10.51,12.71-3.88,25.81-7.23,38.48-10.47,2.12-.54,4.25-1.09,6.37-1.63,2.94-.76,6-1.32,8.95-1.87,3.68-.68,7.48-1.38,11.11-2.46,8.96-2.67,18-5.58,26.74-8.41,5.76-1.86,11.72-3.78,17.6-5.62,1.36-.42,2.83-.64,4.26-.84,1.88-.27,3.83-.55,5.55-1.33l2.35-1.05c11.32-5.07,23.02-10.32,34.15-16.21,8.37-4.44,17.02-9.77,28.04-17.3,4.35-2.97,8.61-6.24,12.74-9.41,6.42-4.92,13.05-10.02,20.13-14.05,6.46-3.69,13.5-6.6,20.31-9.43,5.31-2.2,10.75-4.48,15.96-7.12v-.56Z"/>
      <path class="cls-3" d="M795.2,310.52c-4.67-15.06-12.3-23.84-23.33-26.85-11.79-3.21-23.42-3.39-35.54-.53.45.6.81,1.13,1.1,1.57.49.73.84,1.26,1.13,1.3,5.22.72,10.53,1.4,15.67,2.07,7.25.94,14.74,1.9,22.09,2.97,2.17.32,5.43,1.72,5.82,3.29.4,1.6.84,3.25,1.27,4.84.65,2.4,1.3,4.83,1.85,7.27.92,4.07,1.55,8.16,1.37,12.19-.69,15.23-5.92,29.54-16.32,44.31-2.4,3.41-5.07,6.84-8.03,10.31-13.59,15.97-31.8,26.25-55.67,31.43-23.5,5.1-35.91,1.4-44.1-2.39-1.52-.71-3.15-1.39-4.73-2.05-5.31-2.23-10.81-4.53-14.33-8.49-2.4-2.7-4.9-5.4-7.31-8.02-10.91-11.83-22.17-24.05-28.59-39.68-.43-1.04-.83-2.1-1.22-3.17-1.08-3.02-2.05-5.58-2.91-7.84-1.16-3.07-2.09-5.51-2.7-7.57-.17-.59-.32-1.15-.44-1.68-.12-.53-.21-1.04-.28-1.54-.66-5.16,1.93-8.28,9.88-16.31,7.69-7.78,5.75-15.25,2.51-21.19-.34-.61-.68-1.21-1.04-1.79-4.67-7.67-2.55-12.77,2.69-18.99,3-3.56,5.66-7.53,8.22-11.37,1.31-1.96,2.66-3.98,4.04-5.92.36-.5.71-1.02,1.06-1.53,1.29-1.89,2.63-3.84,4.33-5.34,5.24-4.63,10.7-9.21,16.49-14.07,2.25-1.89,4.58-3.84,7.02-5.9-1.5-.29-2.89-.59-4.23-.89-.45-.1-.89-.2-1.33-.3-3.68-.83-6.86-1.56-10.01-1.58-13.5-.1-28.14.11-44.76.67-15.67.52-28.18,3.55-38.67,9.43-2.42,1.36-4.73,2.87-6.95,4.53-7.85,5.89-16.75,12.58-24.46,20.13-4.77,4.67-6.33,12.56-4.06,20.6,2.36,8.38,8.06,14.55,14.87,16.1,4.79,1.1,9.73,1.96,14.5,2.79,1.65.29,3.3.58,4.95.88,4.35.79,7.51.35,9.65-1.33,1.97-1.55,3.09-4.24,3.32-8.01.51-8.35,6.51-13.03,12.36-14.78.39-.12.78-.22,1.17-.31,2.38-.55,6.37,2.47,11.82,9.03l.45.54c4.25,5.11,9.07,10.89,6.48,18.88-3.53,10.88-9.74,19.01-17.95,23.52-8.28,4.55-18.18,5.16-28.63,1.76-1.35-.44-2.67-.9-3.96-1.37-19.36-7.14-32.28-18.53-38.44-33.9-3.85-9.62-5.72-18.04-5.71-25.74.01-9.29,2.69-17.62,8.17-25.5,5.05-7.24,9.57-14.62,13.94-21.75,1.77-2.89,3.45-5.62,5.09-8.23-4.99-.78-10.14-1.51-15.12-2.22-11.56-1.65-23.52-3.35-35.2-5.8-17.95-3.76-36.12-8-53.68-12.09-11.55-2.69-23.49-5.48-35.26-8.1-12.91-2.88-26.1-5.5-38.87-8.04-3.68-.73-7.36-1.46-11.04-2.2-5.34-1.07-10.78-2.07-16.05-3.03-2.43-.45-4.87-.89-7.3-1.34l-.16-.03-.63-2.64.25-.05c2.18-.43,3.88-1.85,5.68-3.35,3.16-2.63,6.42-5.35,12.39-2.35,2.31,1.16,5.44.91,8.48.65.73-.06,1.44-.12,2.14-.16,1.46-.08,2.93-.18,4.4-.28,4.41-.32,8.82-.73,13.13-1.13l3.06-.28c1.26-.12,2.54-.36,3.78-.59.51-.1,1.02-.19,1.53-.28l-.14-2.48c-4-.45-8.05-.97-11.97-1.47-8.83-1.13-17.95-2.3-26.96-2.72l-1.02-.05c-24.7-1.15-50.23-2.34-75.31-1.74-1.73.04-3.46.19-5.19.41-5.2.67-10.4,2.05-15.47,3.4-4.92,1.3-10.01,2.65-15.08,3.36-33.14,4.62-61.96,13.17-88.09,26.13-20.52,10.18-40.6,16.93-61.39,20.64-5.26.94-13.22,2.36-17.56,6.48-3.56,3.37-7.39,6.62-11.09,9.76-10.91,9.25-22.2,18.82-28.06,32.88-1,2.4-1.76,4.98-2.49,7.47-1.06,3.62-2.16,7.35-4.03,10.61-9.09,15.88-11.88,31.73-8.79,49.87,3.47,20.33,8.34,36.88,20.83,51.5,13.81,16.17,26.86,26.58,41.07,32.76,8.66,3.77,18.75,4.64,28.52,5.49,1.25.11,2.5.22,3.74.33,3.43.32,8.08-2.42,10.72-5.16,3.75-3.88,7.13-8.81,10.05-14.64,4.59-9.15,5.39-19.1,2.27-28.02-2.25-6.42-6.47-11.94-12.14-16.01-1.89-1.36-3.95-2.55-6.14-3.56-2.49-1.15-4.4-1.53-5.68-1.13-6.12,1.89-13.29,4.23-20.08,7.26-4.11,1.83-8.2,1.99-11.82.45-3.26-1.38-5.93-4.12-7.65-7.79-.25-.53-.47-1.07-.68-1.63-5.16-14.13-3.67-28.53,4.7-45.32,9.29-18.65,24.98-33.17,46.65-43.16,1.33-.62,4.21-.45,5.19,0,.24.11.38.24.43.4,2.31,7.93,4.47,16.36,6.42,25.05.31,1.4.33,2.9.35,4.35.02,1.73.04,3.38.52,4.85.07.21.15.41.23.62.46,1.04.91,2.07,1.36,3.12,3.18,7.32,6.48,14.89,11.02,21.42,1.28,1.84,2.55,3.7,3.81,5.56,12.01,17.64,24.44,35.88,49.45,38.08,1.76.16,3.65.66,5.45,1.45,22.06,9.7,42.4,7.92,60.44-5.28,4.48-3.27,8.92-6.72,12.77-10.67.32-.33.64-.66.95-1,5.93-6.38,10.24-14.06,10.7-24.32.25-5.7.51-11.52-1.7-16.32-.11-.24-.23-.48-.35-.71-.49-.94-1.09-1.83-1.81-2.68-1.26-1.48-2.9-2.79-5.02-3.9l-1.53-.8c-8.07-4.21-16.41-8.57-25.11-10.36-5.77-1.19-13.53,1.71-17.7,5.2-4.1,3.44-6.29,9.76-8.21,15.34l-.46,1.32c-1.95,5.59-4.04,8.5-6.78,9.42-2.62.88-5.91-.08-10.35-3.03-2.63-1.75-5.34-3.5-7.95-5.19-9.49-6.15-19.3-12.5-27.87-20-6.71-5.88-10.5-14.59-10.4-23.9.11-9.12,3.84-17.41,10.24-22.76,3-2.5,6.12-4.97,9.13-7.36,5.9-4.67,12-9.5,17.45-14.8,10.42-10.14,27.15-22.36,64.36-26.83,1.2-.14,2.4-.31,3.6-.5,3.6-.56,7.19-1.28,10.69-1.98,5.28-1.06,10.75-2.15,16.18-2.69,4.09-.4,8.29-.92,12.34-1.42,12.88-1.59,26.2-3.23,38.86-1.53,26.46,3.56,53.06,9.36,78.78,14.96,5.58,1.22,11.15,2.43,16.73,3.62,7.61,1.63,15.2,3.89,22.55,6.08,1.43.43,2.88.86,4.33,1.29,4.36,1.29,8.81,2.55,13.23,3.64,4.56,1.12,9.28,1.95,13.85,2.75,5.46.96,11.12,1.94,16.53,3.45.19.05.39.12.58.2,2.92,1.23,5.84,5.47,6.33,8.44.64,3.94-.17,8.91-2.18,13.28-7.67,16.76-8.06,34.2-1.15,56.07.46,1.46.95,2.93,1.48,4.43,3.67,10.46,10.27,15.44,19.19,21.33,4.04,2.67,8.56,4.61,12.94,6.49,4.75,2.04,9.24,3.97,13.03,6.71,1.03.74,2.03,1.37,3.02,1.89,6.92,3.68,13.05,2.41,19.49,1.07,1.06-.22,2.12-.44,3.19-.64,2.77-.51,5.1-.8,7.11-.8,6.27,0,9.52,2.8,14.04,10.32,9.18,15.28,19.67,31.13,34.01,51.39,6.94,9.8,17.92,13.04,28.53,16.18,2.36.7,4.81,1.42,7.16,2.2,2.4.79,4.88,1.97,7.27,3.11,4.79,2.28,9.75,4.63,14.01,3.85,4.9-.89,9.98-1.54,14.9-2.16,12.61-1.6,25.59-3.25,37.02-9.2,1.63-.85,3.23-1.79,4.8-2.83,13.12-8.72,23.81-18.24,31.75-28.31,7.78-9.87,12.49-22.67,16.29-33.89,3.19-9.41,6.11-20.13,3.58-28.27ZM585.1,262.89c-4.65-2.84-8.99-3.77-12.89-2.79-4.13,1.04-7.78,4.23-10.85,9.47-2.2,3.76-5.11,7.14-8.18,10.71-1.45,1.69-2.95,3.43-4.45,5.29l-.19.24-.2-.23c-.93-1.11-1.62-1.98-2.19-2.69-.94-1.17-1.5-1.87-2.15-2.49-7.01-6.63-10.21-13.28-9.52-19.76.76-7.11,6.13-13.73,15.96-19.69,17.6-10.67,36.77-16.31,58.62-17.26l1-.05c3.06-.14,6.22-.29,9.04.57,3.48,1.07,5.59,2.62,6.29,4.62.64,1.85.07,4.09-1.7,6.67-2.22,3.22-4.38,6.55-6.48,9.78-3.43,5.27-6.97,10.71-10.81,15.81-4.43,5.87-13.39,6.62-21.3,1.8ZM254.05,169.58c-3.03.72-6.06,1.45-9.09,2.18-7.34,1.76-14.93,3.59-22.42,5.25-1.77.39-3.63.56-5.43.73-2.66.25-5.41.5-7.8,1.47-.78.32-1.56.6-2.34.89-3.91,1.44-7.6,2.8-10.52,7.42-2.29,3.62-6.23,5.96-10.4,8.45-2.66,1.58-5.4,3.22-7.65,5.2-5.09,4.49-10.03,9.33-14.8,14-4.58,4.48-9.32,9.11-14.18,13.44-10.15,9.04-8.12,19.63-6.15,29.87.64,3.34,1.3,6.8,1.52,10.12.63,9.8,6.54,20.36,16.64,29.72,9.02,8.36,20.09,14.34,28.89,15.6,4.78.69,9.6,1.66,14.26,2.59,5.92,1.19,12.04,2.42,18.12,3.08,3.06.33,6.24-.87,9.05-1.92,1.03-.38,2-.75,2.87-1-.83-2.32-1.7-4.49-2.54-6.59-1.79-4.45-3.49-8.65-4.07-12.92-.72-5.29.16-9.16,2.61-11.49,2.52-2.39,6.59-3.08,12.12-2.06,4.8.89,9.35,4.59,12.5,10.13,2.98,5.26,4.22,11.37,3.32,16.33-2.85,15.6-12.48,26.78-29.43,34.18-6.73,2.94-14.75,3.18-22.51,3.41-2.53.08-5.15.15-7.66.33-3.97.28-8.25-.34-12.07-1.72-11.54-4.18-21.45-10.9-30.31-20.55-7.11-7.74-13.42-17.11-20.45-30.38-1.1-2.08-2.37-4.05-3.75-5.88-7.95-10.46-10.49-20.68-7.98-32.19,3.86-17.7,3.56-18.46-4.01-37.95l-.58-1.5c-5.59,3.97-11.42,7.77-17.06,11.45-12.97,8.45-26.38,17.18-36.91,28.18-24.59,25.66-25.25,41.72-22.29,55.25.83,3.79.7,7.89.58,11.86-.15,5.1-.3,9.92,1.39,14.17,2.87,7.23,9.85,14.43,16.59,17.12,6.26,2.5,15.33,1.92,20.47-5.27,1.66-2.33,3.44-3.57,5.43-3.78,2.4-.27,4.98.98,8.16,3.88,7.87,7.17,11.65,14.62,10.92,21.54-.59,5.63-4.21,10.55-10.48,14.23-5.46,3.2-10.88,4.81-16.41,4.81-7.99,0-16.19-3.36-25-10.13-5.53-4.25-11.73-8.12-18.41-11.52-5.93-3.01-12.67-10.9-18.03-21.08-5.17-9.84-8.04-19.96-7.5-26.42.38-4.52.4-9.17.41-13.66.02-6.08.03-12.37.97-18.42,1.37-8.82,4.17-18.27,8.58-28.88,7.48-18.01,17.43-31.89,30.43-42.43,8.41-6.82,18.23-8.1,27.72-9.34,1.96-.26,3.99-.52,5.97-.83,4.09-.64,8.32-.74,12.41-.84,2.51-.06,5.11-.12,7.65-.31,9.75-.72,17.77-4.04,25.26-10.47,14.45-12.4,32.77-21.45,56.01-27.66,4.22-1.13,8.49-2.41,12.61-3.65,6.7-2.01,13.63-4.1,20.58-5.58,2.27-.49,4.74.51,7.34,1.56,1.47.59,2.98,1.21,4.44,1.52,1.12.24,2.24.47,3.37.7,6.17,1.27,12.55,2.59,19.11,5.26l.72.29-.76.18Z"/>
      <path class="cls-1" d="M795.68,310.37c-4.13-13.33-10.58-21.81-19.63-25.76-1.29-.57-2.64-1.04-4.04-1.42-11.99-3.27-23.82-3.41-36.17-.45l-.38.09.24.31c.56.71.98,1.34,1.32,1.85.6.9.96,1.45,1.48,1.52,5.22.72,10.53,1.4,15.67,2.07,7.24.94,14.73,1.9,22.08,2.97,2.2.32,5.1,1.7,5.41,2.92.4,1.61.85,3.25,1.28,4.85.43,1.59.86,3.2,1.26,4.81,1.01,4.03,1.83,8.1,1.95,12.11.02.8.02,1.6-.02,2.4-.68,15.14-5.89,29.37-16.24,44.06-2.39,3.39-5.05,6.81-7.99,10.26-13.52,15.88-31.64,26.11-55.4,31.27-.77.17-1.55.33-2.34.49-5.57,1.12-11.81,2.04-18.35,2.01-7.48-.03-15.36-1.28-23.08-4.86-1.53-.71-3.17-1.4-4.75-2.06-3.95-1.65-8-3.35-11.23-5.73-1.08-.79-2.06-1.66-2.92-2.63-2.4-2.7-4.9-5.41-7.32-8.03-11.61-12.59-23.61-25.6-29.71-42.68-1.08-3.02-2.05-5.58-2.91-7.84-1-2.63-1.81-4.78-2.41-6.63-.2-.62-.37-1.2-.51-1.75-.07-.28-.14-.55-.2-.81-.24-1.05-.36-2-.36-2.9,0-4.27,2.78-7.36,9.84-14.48,4.09-4.14,5.54-8.19,5.52-11.97,0-1.77-.34-3.48-.86-5.11-.15-.47-.32-.93-.5-1.38-.18-.46-.37-.9-.58-1.35-.61-1.32-1.32-2.59-2.04-3.78-4.52-7.41-2.45-12.36,2.65-18.41,1.39-1.65,2.7-3.39,3.97-5.16.11-.15.22-.3.33-.45,1.36-1.92,2.67-3.88,3.96-5.81,1.31-1.95,2.66-3.97,4.03-5.91.36-.51.71-1.02,1.07-1.54,1.27-1.86,2.59-3.79,4.25-5.25,2.88-2.55,5.84-5.08,8.88-7.66,2.21-1.88,4.48-3.78,6.79-5.72.27-.23.54-.45.82-.68.11-.09.22-.18.33-.27,2.28-1.91,4.63-3.88,7.1-5.97l.4-.34-.52-.1c-.55-.1-1.08-.21-1.61-.31-1.57-.32-3.03-.65-4.45-.97-3.71-.84-6.91-1.57-10.12-1.59-13.51-.1-28.15.11-44.78.67-19.4.65-33.98,5.11-45.9,14.06-7.86,5.9-16.78,12.6-24.51,20.17-4.9,4.8-6.51,12.88-4.19,21.09,2.42,8.55,8.25,14.86,15.24,16.45,4.81,1.1,9.75,1.96,14.53,2.79,1.65.29,3.3.58,4.95.88,4.5.81,7.79.35,10.05-1.43.78-.62,1.44-1.4,1.97-2.34.88-1.57,1.39-3.59,1.54-6.04.36-5.94,3.59-9.96,7.53-12.35.72-.43,1.46-.82,2.21-1.14,1.12-.49,2.27-.87,3.4-1.13,1.53-.35,4.7.9,11.32,8.86l.45.54c4.38,5.25,8.9,10.68,6.39,18.41-3.49,10.76-9.62,18.79-17.71,23.24-.66.36-1.33.69-2.01,1-7.73,3.54-16.75,3.8-26.22.72-1.34-.44-2.65-.89-3.93-1.36-19.23-7.09-32.05-18.39-38.15-33.62-2.08-5.2-3.59-10.07-4.54-14.68-.71-3.46-1.1-6.77-1.16-9.97-.2-9.58,2.49-18.05,8.11-26.11,4.48-6.42,8.53-12.94,12.45-19.32.5-.82,1.01-1.64,1.51-2.46.25-.41.5-.82.75-1.22.95-1.55,1.88-3.06,2.79-4.53.59-.95,1.17-1.88,1.75-2.79l.2-.32-.38-.06c-.47-.07-.94-.14-1.41-.22-2.63-.4-5.29-.8-7.95-1.18-2.06-.3-4.11-.59-6.14-.88-7.79-1.11-15.75-2.25-23.7-3.62-3.84-.66-7.67-1.37-11.48-2.17-17.95-3.76-36.11-8-53.67-12.09-6.93-1.62-14-3.26-21.1-4.89-4.73-1.09-9.46-2.16-14.17-3.21-12.92-2.88-26.11-5.5-38.88-8.04-3.68-.73-7.36-1.46-11.04-2.2-5.34-1.07-10.79-2.07-16.06-3.03-1.55-.28-3.1-.57-4.65-.86-.83-.15-1.66-.3-2.49-.46l-.43-1.83c1.37-.32,2.57-1.01,3.69-1.84.67-.49,1.32-1.03,1.96-1.57,3.17-2.65,6.17-5.14,11.84-2.29.61.31,1.26.52,1.96.66,2.07.43,4.46.23,6.79.04.72-.06,1.43-.12,2.12-.16,5.86-.33,11.8-.88,17.55-1.41l3.06-.28c1.29-.12,2.58-.36,3.82-.6.58-.11,1.16-.22,1.74-.32l.11-.02.11-.02h0s-.19-3.35-.19-3.35l-.21-.02c-4.06-.45-8.19-.98-12.18-1.49-6.63-.85-13.42-1.72-20.21-2.28-2.26-.19-4.53-.34-6.78-.44l-1.02-.05c-24.71-1.15-50.25-2.34-75.35-1.75-6.11.15-12.25,1.59-18.25,3.16-.85.22-1.69.44-2.53.67-1.72.46-3.46.92-5.21,1.35-3.25.81-6.54,1.54-9.82,2-29.05,4.05-54.78,11.12-78.3,21.52-3.36,1.49-6.67,3.04-9.95,4.66-7.68,3.81-15.3,7.14-22.91,10-12.69,4.78-25.38,8.28-38.35,10.6-.42.08-.85.15-1.27.23-6.35,1.18-12.7,2.73-16.55,6.38-2.99,2.83-6.17,5.58-9.31,8.25-.59.5-1.17,1-1.76,1.49-6.16,5.23-12.45,10.55-17.82,16.74-4.18,4.81-7.8,10.13-10.38,16.33-.95,2.28-1.68,4.71-2.38,7.07-.04.15-.09.3-.13.45-.06.19-.11.39-.17.58-1,3.41-2.07,6.89-3.81,9.92-9.15,15.99-11.96,31.94-8.85,50.2,3.48,20.42,8.38,37.03,20.94,51.74,13.86,16.23,26.97,26.68,41.26,32.89,1.64.71,3.32,1.32,5.05,1.85,7.47,2.28,15.66,2.99,23.63,3.69,1.25.11,2.5.22,3.73.33.22.02.45.03.69.03,3.49-.05,7.89-2.69,10.44-5.34,3.78-3.92,7.19-8.89,10.14-14.76.87-1.74,1.61-3.51,2.21-5.29,1.4-4.16,2.07-8.41,1.98-12.6-.08-3.59-.7-7.12-1.89-10.51-2.57-7.34-7.68-13.51-14.57-17.73-1.27-.78-2.59-1.5-3.98-2.13-2.6-1.2-4.63-1.59-6.04-1.15-2.49.77-5.17,1.62-7.91,2.56-4.01,1.37-8.18,2.92-12.23,4.72-3.48,1.55-6.94,1.87-10.09.93-.45-.13-.89-.29-1.33-.48-3.6-1.52-6.46-4.77-8.05-9.13-5.11-13.99-3.62-28.26,4.67-44.92,7.89-15.84,20.44-28.67,37.37-38.27,1.43-.81,2.88-1.6,4.37-2.36.24-.12.46-.25.7-.37,1.3-.66,2.62-1.29,3.97-1.92,1.48-.68,4.68-.26,4.92.08,1.5,5.13,2.92,10.48,4.27,15.96.74,2.99,1.46,6,2.14,9.06.3,1.35.32,2.82.34,4.25.02,1.7.05,3.45.55,5.01.07.22.15.44.25.65.45,1.03.91,2.07,1.36,3.11,3.2,7.34,6.5,14.94,11.07,21.5,1.28,1.84,2.54,3.7,3.81,5.56,12.08,17.74,24.57,36.08,49.82,38.3.43.04.86.1,1.3.18,1.32.24,2.68.66,3.99,1.23,3.44,1.51,6.84,2.75,10.2,3.71.03,0,.07.02.1.03,1.78.51,3.55.93,5.3,1.28.25.05.5.11.75.15,10.5,1.97,20.54,1.13,30.06-2.5.15-.06.31-.11.46-.17.17-.07.34-.14.5-.21,4.65-1.87,9.18-4.41,13.57-7.62,12.03-8.81,23.84-18.87,24.62-36.37.08-1.74.16-3.49.16-5.22.03-5.19-.56-10.21-3.61-14.2-1.36-1.78-3.2-3.35-5.7-4.65l-1.53-.8c-2.19-1.14-4.4-2.29-6.63-3.4-5.17-2.57-10.45-4.91-15.89-6.35-.9-.24-1.81-.46-2.73-.65-.74-.15-1.51-.24-2.3-.27-.12,0-.24,0-.36,0-5.46-.08-11.81,2.52-15.46,5.57-1.58,1.32-2.88,3.05-3.98,4.99-1.85,3.23-3.16,7.05-4.38,10.58l-.46,1.32c-.24.68-.47,1.32-.72,1.92-1.68,4.19-3.49,6.44-5.75,7.2-.31.1-.63.18-.96.23-.33.05-.67.07-1.03.06-2.13-.05-4.71-1.12-7.94-3.26-2.64-1.75-5.34-3.5-7.96-5.2-3.97-2.57-7.99-5.18-11.96-7.89-5.5-3.76-10.89-7.72-15.86-12.06-6.51-5.7-10.22-14.11-10.22-23.13,0-.13,0-.26,0-.39h0c.07-6.03,1.76-11.69,4.77-16.36.07-.1.13-.21.2-.32,0-.01.02-.02.03-.04,1.42-2.13,3.12-4.04,5.08-5.68,2.99-2.5,6.11-4.96,9.12-7.35,1.48-1.17,2.97-2.35,4.46-3.54,1.82-1.46,3.64-2.95,5.44-4.47,1.33-1.12,2.64-2.26,3.93-3.41,1.24-1.12,2.47-2.25,3.66-3.41,7.12-6.93,17.22-14.84,34.87-20.56,8.03-2.6,17.61-4.74,29.19-6.13,4.81-.58,9.65-1.55,14.33-2.48,5.27-1.06,10.72-2.15,16.13-2.68,4.1-.4,8.3-.92,12.35-1.42,12.05-1.48,24.48-3.02,36.36-1.81.79.08,1.58.17,2.37.28,26.43,3.55,53.03,9.35,78.74,14.96,5.58,1.22,11.15,2.43,16.73,3.62,7.59,1.62,15.18,3.89,22.51,6.07,5.74,1.71,11.68,3.48,17.59,4.94,4.58,1.13,9.31,1.96,13.88,2.75,5.45.95,11.09,1.94,16.48,3.44,2.89.8,6.07,5.28,6.55,8.24.42,2.58.19,5.61-.6,8.61-.39,1.48-.89,2.96-1.54,4.38-7.73,16.87-8.12,34.43-1.17,56.42.46,1.47.96,2.95,1.49,4.46.47,1.33.98,2.56,1.53,3.73.08.16.16.31.24.47.21.41.41.83.63,1.22,3.9,7.1,9.67,11.33,16.98,16.16,3.57,2.36,7.49,4.14,11.36,5.82.55.24,1.1.48,1.65.71,4.72,2.03,9.19,3.94,12.94,6.66.52.38,1.04.73,1.56,1.05,4.13,2.57,8.02,3.37,11.77,3.34,3.28-.03,6.45-.69,9.57-1.33,1.06-.22,2.12-.44,3.18-.64,2.82-.52,5.15-.81,7.15-.81,6.01.02,9.06,2.74,13.48,10.1,9.19,15.29,19.69,31.15,34.03,51.42,7.04,9.94,18.1,13.21,28.8,16.37,2.36.7,4.8,1.42,7.15,2.2,2.37.79,4.83,1.96,7.21,3.09,3.38,1.61,6.84,3.24,10.13,3.82.8.14,1.58.24,2.36.24h0c.62,0,1.23-.05,1.83-.16,4.88-.89,9.96-1.53,14.87-2.16,14.47-1.84,29.43-3.74,42.03-12.11,13.17-8.75,23.89-18.31,31.86-28.42,6.77-8.59,11.22-19.36,14.77-29.4.55-1.57,1.09-3.12,1.6-4.64,1.03-3.04,2.03-6.21,2.83-9.4,1.7-6.76,2.5-13.56.76-19.18ZM775.32,372.68c-7.94,10.07-18.62,19.59-31.75,28.31-1.56,1.04-3.16,1.98-4.8,2.83-11.43,5.95-24.41,7.6-37.02,9.2-4.92.62-10,1.27-14.9,2.16-4.26.77-9.22-1.58-14.01-3.85-2.4-1.14-4.88-2.32-7.27-3.11-2.36-.78-4.8-1.5-7.16-2.2-10.62-3.13-21.6-6.38-28.53-16.18-14.34-20.26-24.83-36.11-34.01-51.39-4.52-7.53-7.77-10.32-14.04-10.32-2.01,0-4.33.29-7.11.8-1.07.2-2.13.42-3.19.64-6.44,1.33-12.56,2.61-19.49-1.07-.99-.53-1.99-1.15-3.02-1.89-3.8-2.75-8.28-4.67-13.03-6.71-4.38-1.88-8.9-3.82-12.94-6.49-8.92-5.89-15.52-10.87-19.19-21.33-.53-1.5-1.02-2.98-1.48-4.43-6.92-21.86-6.53-39.31,1.15-56.07,2-4.38,2.82-9.34,2.18-13.28-.48-2.97-3.41-7.21-6.33-8.44-.19-.08-.39-.15-.58-.2-5.42-1.51-11.07-2.49-16.53-3.45-4.57-.8-9.29-1.62-13.85-2.75-4.42-1.09-8.86-2.36-13.23-3.64-1.45-.43-2.9-.86-4.33-1.29-7.35-2.19-14.94-4.45-22.55-6.08-5.58-1.19-11.15-2.41-16.73-3.62-25.72-5.61-52.33-11.41-78.78-14.96-12.66-1.7-25.98-.06-38.86,1.53-4.06.5-8.25,1.02-12.34,1.42-5.43.53-10.9,1.63-16.18,2.69-3.5.7-7.1,1.42-10.69,1.98-1.2.19-2.4.35-3.6.5-37.21,4.47-53.94,16.68-64.36,26.83-5.45,5.31-11.55,10.13-17.45,14.8-3.02,2.39-6.13,4.85-9.13,7.36-6.41,5.35-10.14,13.65-10.24,22.76-.11,9.31,3.68,18.02,10.4,23.9,8.57,7.5,18.38,13.85,27.87,20,2.62,1.69,5.32,3.45,7.95,5.19,4.45,2.95,7.73,3.91,10.35,3.03,2.74-.92,4.83-3.83,6.78-9.42l.46-1.32c1.92-5.58,4.11-11.9,8.21-15.34,4.17-3.49,11.93-6.39,17.7-5.2,8.7,1.79,17.04,6.14,25.11,10.36l1.53.8c2.12,1.11,3.76,2.42,5.02,3.9.72.84,1.32,1.74,1.81,2.68.12.23.24.47.35.71,2.21,4.8,1.95,10.62,1.7,16.32-.46,10.26-4.77,17.94-10.7,24.32-.31.34-.63.67-.95,1-3.85,3.94-8.29,7.39-12.77,10.67-18.04,13.2-38.38,14.98-60.44,5.28-1.8-.79-3.69-1.29-5.45-1.45-25.02-2.2-37.44-20.44-49.45-38.08-1.27-1.86-2.53-3.72-3.81-5.56-4.54-6.53-7.83-14.1-11.02-21.42-.45-1.04-.91-2.08-1.36-3.12-.09-.2-.17-.41-.23-.62-.48-1.46-.5-3.11-.52-4.85-.02-1.45-.04-2.95-.35-4.35-1.95-8.69-4.11-17.12-6.42-25.05-.05-.16-.19-.29-.43-.4-.98-.45-3.85-.61-5.19,0-21.67,9.98-37.36,24.5-46.65,43.16-8.36,16.79-9.85,31.19-4.7,45.32.21.56.43,1.11.68,1.63,1.72,3.67,4.39,6.41,7.65,7.79,3.62,1.53,7.7,1.38,11.82-.45,6.8-3.03,13.97-5.37,20.08-7.26,1.29-.4,3.2-.02,5.68,1.13,2.2,1.01,4.25,2.21,6.14,3.56,5.68,4.07,9.89,9.58,12.14,16.01,3.12,8.91,2.32,18.86-2.27,28.02-2.92,5.83-6.3,10.76-10.05,14.64-2.64,2.74-7.29,5.48-10.72,5.16-1.24-.11-2.48-.22-3.74-.33-9.76-.85-19.86-1.73-28.52-5.49-14.22-6.18-27.27-16.59-41.07-32.76-12.49-14.62-17.36-31.16-20.83-51.5-3.09-18.14-.3-33.98,8.79-49.87,1.86-3.26,2.96-7,4.03-10.61.73-2.49,1.49-5.07,2.49-7.47,5.86-14.05,17.15-23.62,28.06-32.88,3.7-3.14,7.53-6.39,11.09-9.76,4.34-4.12,12.3-5.54,17.56-6.48,20.79-3.71,40.87-10.47,61.39-20.64,26.13-12.96,54.95-21.51,88.09-26.13,5.07-.71,10.16-2.06,15.08-3.36,5.07-1.34,10.27-2.72,15.47-3.4,1.73-.22,3.47-.37,5.19-.41,25.08-.6,50.62.59,75.31,1.74l1.02.05c9,.42,18.13,1.59,26.96,2.72,3.92.5,7.98,1.02,11.97,1.47l.14,2.48c-.51.09-1.02.18-1.53.28-1.24.23-2.51.47-3.78.59l-3.06.28c-4.31.4-8.72.81-13.13,1.13-1.47.11-2.94.2-4.4.28-.69.04-1.41.1-2.14.16-3.03.25-6.17.51-8.48-.65-5.97-3.01-9.23-.28-12.39,2.35-1.8,1.5-3.5,2.92-5.68,3.35l-.25.05.63,2.64.16.03c2.43.45,4.87.9,7.3,1.34,5.27.96,10.71,1.96,16.05,3.03,3.68.74,7.36,1.47,11.04,2.2,12.76,2.54,25.96,5.16,38.87,8.04,11.77,2.62,23.71,5.41,35.26,8.1,17.57,4.1,35.73,8.33,53.68,12.09,11.69,2.45,23.64,4.15,35.2,5.8,4.98.71,10.12,1.44,15.12,2.22-1.64,2.61-3.32,5.34-5.09,8.23-4.37,7.13-8.9,14.51-13.94,21.75-5.49,7.87-8.16,16.21-8.17,25.5-.01,7.7,1.86,16.12,5.71,25.74,6.15,15.37,19.08,26.76,38.44,33.9,1.29.48,2.61.93,3.96,1.37,10.45,3.4,20.35,2.79,28.63-1.76,8.21-4.51,14.42-12.64,17.95-23.52,2.59-7.99-2.23-13.77-6.48-18.88l-.45-.54c-5.45-6.56-9.44-9.58-11.82-9.03-.39.09-.78.19-1.17.31-5.84,1.75-11.85,6.42-12.36,14.78-.23,3.77-1.34,6.46-3.32,8.01-2.14,1.68-5.3,2.12-9.65,1.33-1.65-.3-3.3-.59-4.95-.88-4.77-.83-9.71-1.7-14.5-2.79-6.8-1.55-12.5-7.72-14.87-16.1-2.27-8.03-.71-15.92,4.06-20.6,7.71-7.55,16.61-14.23,24.46-20.13,2.22-1.67,4.53-3.17,6.95-4.53,10.49-5.88,22.99-8.91,38.67-9.43,16.62-.55,31.26-.77,44.76-.67,3.16.02,6.33.75,10.01,1.58.44.1.88.2,1.33.3,1.34.3,2.73.6,4.23.89-2.44,2.06-4.77,4.01-7.02,5.9-5.79,4.86-11.26,9.44-16.49,14.07-1.7,1.5-3.04,3.46-4.33,5.34-.35.52-.7,1.03-1.06,1.53-1.38,1.95-2.73,3.97-4.04,5.92-2.57,3.84-5.22,7.8-8.22,11.37-5.24,6.22-7.36,11.32-2.69,18.99.35.58.7,1.18,1.04,1.79,3.24,5.94,5.18,13.41-2.51,21.19-7.94,8.03-10.54,11.15-9.88,16.31.06.49.16,1,.28,1.54.12.53.27,1.09.44,1.68.61,2.06,1.53,4.5,2.7,7.57.86,2.26,1.83,4.82,2.91,7.84.38,1.07.79,2.13,1.22,3.17,6.42,15.63,17.68,27.85,28.59,39.68,2.41,2.62,4.91,5.33,7.31,8.02,3.52,3.96,9.02,6.26,14.33,8.49,1.58.66,3.2,1.34,4.73,2.05,8.18,3.79,20.59,7.5,44.1,2.39,23.87-5.18,42.08-15.47,55.67-31.43,2.96-3.47,5.63-6.91,8.03-10.31,10.4-14.77,15.63-29.08,16.32-44.31.18-4.03-.45-8.12-1.37-12.19-.55-2.44-1.21-4.87-1.85-7.27-.43-1.59-.87-3.23-1.27-4.84-.39-1.57-3.65-2.98-5.82-3.29-7.35-1.07-14.84-2.04-22.09-2.97-5.14-.66-10.45-1.35-15.67-2.07-.29-.04-.65-.57-1.13-1.3-.29-.44-.65-.97-1.1-1.57,12.13-2.85,23.75-2.68,35.54.53,11.03,3,18.66,11.79,23.33,26.85,2.53,8.14-.39,18.86-3.58,28.27-3.8,11.22-8.51,24.02-16.29,33.89Z"/>
      <path class="cls-1" d="M254.08,169.1c-6.55-2.68-12.93-3.99-19.11-5.26-1.12-.23-2.25-.46-3.37-.7-1.46-.31-2.97-.92-4.44-1.52-2.6-1.05-5.06-2.05-7.34-1.56-6.94,1.48-13.87,3.57-20.58,5.58-4.12,1.24-8.39,2.52-12.61,3.65-23.24,6.21-41.55,15.26-56.01,27.66-7.49,6.43-15.51,9.75-25.26,10.47-2.54.19-5.13.25-7.65.31-4.09.1-8.32.2-12.41.84-1.98.31-4.01.57-5.97.83-9.5,1.24-19.32,2.52-27.72,9.34-13,10.54-22.95,24.42-30.43,42.43-4.41,10.61-7.21,20.05-8.58,28.88-.94,6.06-.96,12.34-.97,18.42-.01,4.49-.03,9.14-.41,13.66-.55,6.46,2.32,16.59,7.5,26.42,5.36,10.19,12.09,18.07,18.03,21.08,6.69,3.4,12.88,7.28,18.41,11.52,8.81,6.77,17.01,10.13,25,10.13,5.53,0,10.96-1.61,16.41-4.81,6.27-3.68,9.89-8.6,10.48-14.23.72-6.92-3.05-14.37-10.92-21.54-3.18-2.9-5.76-4.14-8.16-3.88-1.99.21-3.77,1.45-5.43,3.78-5.13,7.19-14.21,7.77-20.47,5.27-6.75-2.69-13.72-9.9-16.59-17.12-1.69-4.25-1.54-9.07-1.39-14.17.12-3.97.24-8.07-.58-11.86-2.95-13.53-2.3-29.58,22.29-55.25,10.54-11,23.95-19.74,36.91-28.18,5.64-3.68,11.48-7.48,17.06-11.45l.58,1.5c7.58,19.49,7.87,20.25,4.01,37.95-2.51,11.5.03,21.73,7.98,32.19,1.39,1.83,2.65,3.8,3.75,5.88,7.04,13.26,13.34,22.63,20.45,30.38,8.86,9.65,18.77,16.37,30.31,20.55,3.81,1.38,8.1,1.99,12.07,1.72,2.51-.17,5.13-.25,7.66-.33,7.76-.23,15.78-.47,22.51-3.41,16.95-7.4,26.57-18.58,29.43-34.18.91-4.96-.33-11.06-3.32-16.33-3.14-5.55-7.7-9.24-12.5-10.13-5.53-1.03-9.61-.34-12.12,2.06-2.45,2.33-3.32,6.19-2.61,11.49.58,4.27,2.27,8.48,4.07,12.92.85,2.1,1.72,4.27,2.54,6.59-.87.25-1.85.62-2.87,1-2.82,1.05-6,2.25-9.05,1.92-6.08-.65-12.2-1.89-18.12-3.08-4.66-.94-9.48-1.91-14.26-2.59-8.8-1.26-19.87-7.24-28.89-15.6-10.1-9.36-16.01-19.92-16.64-29.72-.21-3.32-.88-6.78-1.52-10.12-1.96-10.24-3.99-20.83,6.15-29.87,4.86-4.33,9.6-8.96,14.18-13.44,4.78-4.67,9.72-9.51,14.8-14,2.24-1.98,4.99-3.62,7.65-5.2,4.17-2.49,8.11-4.83,10.4-8.45,2.93-4.63,6.62-5.98,10.52-7.42.78-.29,1.56-.58,2.34-.89,2.4-.97,5.15-1.23,7.8-1.47,1.8-.17,3.66-.34,5.43-.73,7.5-1.66,15.08-3.48,22.42-5.25,3.03-.73,6.06-1.46,9.09-2.18l.76-.18-.72-.29ZM222.47,176.75c-4.38.97-9.22.57-13.27,2.22-4.63,1.88-9.41,2.77-12.98,8.41-3.76,5.94-12.34,8.59-18,13.6-9.96,8.81-19.05,18.6-28.98,27.45-13.61,12.13-5.58,26.79-4.72,40.2,1.38,21.52,27.96,43,45.75,45.56,10.85,1.56,21.52,4.5,32.39,5.67,4.37.47,9.07-2.14,12.28-3-2.63-7.49-5.84-13.45-6.69-19.72-1.47-10.85,3.88-15.23,14.43-13.27,10.21,1.9,17.46,16.07,15.62,26.17-3.2,17.48-14.86,27.7-29.28,33.99-8.89,3.88-19.96,3.02-30.09,3.72-3.95.27-8.24-.35-11.96-1.7-24.78-8.97-38.91-28.72-50.63-50.81-1.09-2.06-2.36-4.06-3.78-5.91-7.25-9.53-10.61-19.69-7.93-31.98,3.99-18.3,3.56-18.56-4.72-39.89-18.58,13.25-39.09,24-54.27,39.85-13.71,14.31-27.55,31.66-22.36,55.48,1.85,8.47-1.08,18.35,1.99,26.07,2.8,7.06,9.79,14.49,16.73,17.26,5.74,2.29,15.23,2.39,20.76-5.36,4.19-5.86,8.72-3.96,13.22.14,14.5,13.21,14.47,27.16.48,35.37-14.87,8.72-28.31,4.55-41.13-5.3-5.73-4.4-12-8.27-18.45-11.55-12.78-6.5-26.54-33.69-25.39-47.26.9-10.66-.25-21.56,1.38-32.06,1.52-9.83,4.73-19.59,8.56-28.82,6.79-16.34,16.24-30.88,30.36-42.33,10.08-8.17,21.98-8.31,33.57-10.12,6.58-1.03,13.36-.65,20.04-1.14,9.6-.7,17.66-3.88,25.4-10.53,16.09-13.81,35.4-22.13,55.91-27.61,11.09-2.97,21.97-6.83,33.18-9.23,3.51-.75,7.7,2.24,11.68,3.08,7.32,1.56,14.72,2.8,22.43,5.95-10.5,2.49-20.98,5.09-31.51,7.42Z"/>
      <path class="cls-1" d="M606.39,261.08c3.84-5.09,7.38-10.54,10.81-15.81,2.1-3.23,4.27-6.56,6.48-9.78,1.77-2.57,2.34-4.81,1.7-6.67-.69-2-2.81-3.55-6.29-4.62-2.82-.87-5.98-.72-9.04-.57l-1,.05c-21.84.95-41.02,6.59-58.62,17.26-9.83,5.96-15.2,12.58-15.96,19.69-.69,6.48,2.51,13.12,9.52,19.76.65.62,1.22,1.32,2.15,2.49.57.71,1.26,1.58,2.19,2.69l.2.23.19-.24c1.49-1.86,2.99-3.6,4.45-5.29,3.08-3.57,5.98-6.94,8.18-10.71,3.07-5.25,6.72-8.43,10.85-9.47,3.9-.98,8.24-.04,12.89,2.79,7.91,4.82,16.87,4.07,21.3-1.8ZM585.23,262.67c-9.93-6.06-18.14-3.39-24.09,6.77-3.23,5.51-7.94,10.15-12.61,15.96-2.45-2.94-3.29-4.19-4.36-5.2-15.13-14.32-11.71-28.08,6.4-39.05,18.36-11.13,37.59-16.31,58.5-17.22,3.32-.14,6.88-.43,9.96.52,5.38,1.66,8.66,4.81,4.46,10.91-5.84,8.48-11.1,17.37-17.29,25.58-4.55,6.03-13.45,6.32-20.97,1.74Z"/>
      <path class="cls-3" d="M1109.92,132.06c-6.71,4-13.65,8.13-20.5,12.13-2.18,1.28-4.41,2.83-6.56,4.32-5.34,3.72-10.86,7.56-16.49,7.82-9.24.43-15.65,2.79-23.33,8.66,2.04-.23,3.91-.43,5.66-.62,3.94-.42,7.35-.78,10.69-1.31,2.58-.41,5.22-.78,7.77-1.14,7.44-1.05,15.12-2.13,22.32-4.33,4.72-1.45,9.08-4.4,13.31-7.25,1.75-1.19,3.57-2.42,5.39-3.52,6.25-3.79,12.48-7.6,18.71-11.41,7.74-4.73,15.74-9.62,23.62-14.39,1.09-.66,2.17-1.34,3.25-2.01,3.6-2.25,7.32-4.58,11.27-6.19,8.7-3.54,17.86-7.14,28.02-11.01,5.72-2.18,11.76-4.45,18.21-6.84v-12.03c-19.93,5.52-40.6,14.31-62.81,26.68-12.98,7.23-25.96,14.96-38.52,22.44Z"/>
      <path class="cls-1" d="M1211.25,94.96c-6.45,2.39-12.49,4.66-18.21,6.84-10.16,3.87-19.31,7.47-28.02,11.01-3.95,1.61-7.67,3.94-11.27,6.19-1.08.68-2.16,1.36-3.25,2.01-7.89,4.78-15.89,9.66-23.62,14.39-6.23,3.81-12.47,7.62-18.71,11.41-1.82,1.1-3.63,2.33-5.39,3.52-4.22,2.86-8.59,5.81-13.31,7.25-7.2,2.21-14.89,3.29-22.32,4.33-2.55.36-5.19.73-7.77,1.14-3.34.53-6.74.89-10.69,1.31-1.75.19-3.62.38-5.66.62,7.68-5.87,14.09-8.23,23.33-8.66,5.63-.26,11.15-4.11,16.49-7.82,2.15-1.5,4.38-3.05,6.56-4.32,6.86-4.01,13.79-8.14,20.5-12.13,12.56-7.48,25.54-15.21,38.52-22.44,22.21-12.38,42.88-21.16,62.81-26.68v-.52c-20.01,5.53-40.76,14.34-63.05,26.76-3.25,1.81-6.49,3.65-9.73,5.51-9.72,5.58-19.38,11.33-28.8,16.94-6.71,4-13.64,8.13-20.5,12.13-2.2,1.29-4.44,2.84-6.6,4.34-4.62,3.22-9.38,6.53-14.17,7.48-.68.14-1.37.22-2.06.26-5.42.25-9.88,1.16-14.18,3.04-3.35,1.46-6.6,3.5-10.14,6.27l-.7.55.88-.1c2.39-.28,4.54-.5,6.55-.72,3.95-.42,7.36-.78,10.71-1.32,2.57-.41,5.21-.78,7.76-1.14,7.46-1.05,15.16-2.13,22.4-4.35,4.79-1.47,9.19-4.44,13.44-7.32,1.75-1.18,3.56-2.41,5.37-3.51,6.25-3.79,12.48-7.6,18.71-11.41,7.74-4.73,15.74-9.62,23.62-14.39,1.09-.66,2.17-1.34,3.26-2.02h0c.45-.28.9-.56,1.35-.84.02-.02.05-.03.08-.05.43-.27.85-.53,1.28-.79,2.24-1.37,4.54-2.69,6.91-3.79.04-.02.08-.04.11-.05.48-.22.97-.43,1.46-.63,13.55-5.51,28.22-11.18,46.04-17.78v-.53Z"/>
      <path class="cls-2" d="M1172.42,504.99l-.39.12c-1.63.5-3.32,1.01-4.52,2.02-16.59,13.95-36.34,14.67-58.57,14.17-16.07-.36-32.34-2.9-48.08-5.36-6.88-1.08-14-2.19-21-3.1-2.18-.28-4.4-.54-6.55-.78-.95-.11-1.89-.21-2.84-.32l-.89,2.95c1.88.57,3.76,1.17,5.64,1.76,4.3,1.36,8.74,2.76,13.16,3.91,2.36.61,4.71,1.25,7.06,1.89,8.07,2.18,16.42,4.44,24.76,5.64,10.2,1.46,21.26,2.06,33.8,1.83,1.41-.03,2.82-.05,4.24-.07,11.03-.16,22.43-.32,32.92-3.14,10.08-2.71,19.63-8.12,28.86-13.36,1.47-.83,2.94-1.67,4.41-2.48,2.56-1.43,4.84-3.59,7.04-5.67,1.67-1.58,3.37-3.19,5.21-4.5,1.1-.78,2.26-1.46,3.49-1.94,4.04-1.61,7.72-3.57,11.07-5.89v-12.07c-9.84,11.29-22.81,19.48-38.82,24.4Z"/>
      <path class="cls-2" d="M1177.03,323.1c-13.43-2.69-28.64-4.25-46.5-4.79-8.04-.24-16.31,1.05-24.29,2.31-2.38.37-4.83.76-7.25,1.1-8.94,1.25-14.84,7.38-20.54,13.3-1.14,1.19-2.32,2.41-3.5,3.58-.98.96-2.01,1.92-3.02,2.85-3.21,2.98-6.54,6.05-8.51,9.74-6.65,12.39-7.25,25.73-1.77,39.64.95,2.4,2.53,4.6,4.06,6.73.9,1.26,1.84,2.55,2.64,3.89.89,1.49,1.83,3.19,1.64,4.66-.46,3.43,0,5.75,1.37,6.9,1.46,1.22,3.99,1.22,7.75.02,2.59-.83,5.2-1.79,7.73-2.72,4.76-1.74,9.67-3.55,14.67-4.6,18.21-3.84,26.1-17.54,33.85-33.71l.08-.17.19.04c.52.1,1.1.25,1.71.42,1.49.4,3.19.85,4.84.73,15.75-1.16,26.43,8.39,36.77,17.62l.86.77c2.19,1.95,4,4.44,5.39,7.35,2.31,4.84,3.45,10.84,3.22,17.43-.32,9.02-3.16,17.5-7.71,23.6-1.52,2.03-3.22,3.81-5.09,5.25-3.63,2.8-7.7,5.12-11.64,7.37-2.79,1.59-5.68,3.24-8.38,5.04-7.6,5.07-14.75,9.35-25.3,10.33-25.75,2.41-50.87.29-76.78-6.48-3.39-.89-6.82-1.86-10.13-2.79-1.49-.42-2.97-.84-4.46-1.26l-1.43,3.2c1.51.88,3.02,1.89,4.47,2.88,3.29,2.23,6.69,4.54,10.31,5.24,19.87,3.85,36.57,6.68,53.47,7.99,9.79.76,19.92-.71,29.72-2.13,1.55-.22,3.1-.45,4.64-.66,2.08-.29,3.97-1.52,5.97-2.83,1.56-1.02,3.17-2.07,4.88-2.65,20.69-6.96,38.3-14.58,44.19-37.5.5-1.93,1.11-3.85,1.7-5.7,2.55-7.96,4.96-15.49-2.03-23.35-2.53-2.85-4.95-5.92-7.28-8.88-3.6-4.57-7.3-9.28-11.52-13.3-.6-.57-1.22-1.13-1.84-1.68-8.07-7.01-18.37-8.27-28.34-9.48-4.58-.56-9.31-1.13-13.78-2.26-1.13-.28-2.58-.05-4.32.69-.02,0-.04.02-.05.02l-10.55,26.55-14.9-5.42c.23,1.4.53,2.68.79,3.81.38,1.63.69,2.98.69,4.1,0,.67-.11,1.25-.39,1.76-.84,1.55-5.3,2.14-7.7,1.38-5.42-1.74-10.63-3.56-14.82-6.73-1.19-.9-2.24-1.83-3.17-2.77-8.96-9.13-6.22-20.11-3.56-30.77.5-2.01,1.02-4.08,1.45-6.1.08-.4.16-.8.24-1.21.24-1.2.48-2.45.89-3.62.28-.8,1.01-1.66,1.85-2.19,2.49-1.57,4.97-3.37,7.37-5.11,5.55-4.02,11.28-8.17,17.59-9.9,10.47-2.87,21.48-4.34,32.28-5.6,1.54-.18,3.08-.36,4.61-.53,3.11-.36,6.33-.73,9.49-1.12,6.08-.76,11.2-.49,15.21.79,4.73,1.52,9.29,3.81,13.69,6.03,2.18,1.1,4.43,2.23,6.68,3.26l2.02.92c8.77,3.98,17.77,8.07,23.74,15.41v-14.3c-10.46-7.1-22.91-10.14-34.22-12.4Z"/>
      <path class="cls-1" d="M1211.25,492.66c-3.36,2.33-7.03,4.29-11.07,5.89-1.23.49-2.38,1.16-3.49,1.94-1.84,1.31-3.54,2.92-5.21,4.5-2.2,2.08-4.47,4.24-7.04,5.67-1.47.82-2.93,1.65-4.41,2.48-9.24,5.23-18.79,10.64-28.86,13.36-10.48,2.82-21.89,2.98-32.92,3.14-1.42.02-2.83.04-4.24.07-12.54.23-23.6-.37-33.8-1.83-8.35-1.19-16.69-3.45-24.76-5.64-2.35-.64-4.71-1.28-7.06-1.89-4.43-1.15-8.87-2.55-13.16-3.91-1.88-.59-3.76-1.19-5.64-1.76l.89-2.95c.95.11,1.89.22,2.84.32,2.15.24,4.37.49,6.55.78,7,.91,14.12,2.03,21,3.1,15.74,2.46,32.02,5,48.08,5.36,22.23.5,41.98-.23,58.57-14.17,1.2-1.01,2.89-1.52,4.52-2.02l.39-.12c16.01-4.92,28.98-13.11,38.82-24.4v-.76c-9.82,11.45-22.85,19.73-38.97,24.69l-.39.12c-1.68.51-3.42,1.04-4.7,2.12-16.46,13.83-36.11,14.56-58.24,14.06-16.03-.36-32.29-2.9-48.02-5.36-3.44-.54-6.94-1.09-10.46-1.61s-7.05-1.03-10.55-1.49c-.45-.06-.91-.11-1.36-.17-1.03-.13-2.06-.25-3.09-.37-.7-.08-1.41-.16-2.1-.24-1.02-.11-2.03-.23-3.04-.35l-.21-.02-1.16,3.83.24.07c1.96.6,3.92,1.21,5.87,1.83,4.3,1.36,8.75,2.76,13.19,3.92,2.35.61,4.71,1.25,7.06,1.89,8.09,2.19,16.45,4.45,24.82,5.65,1.1.16,2.21.3,3.33.44,7.85.96,16.24,1.44,25.42,1.44h0c1.68,0,3.39-.02,5.13-.05,1.41-.03,2.82-.05,4.24-.07.99-.01,1.99-.03,2.98-.05,6.65-.11,13.39-.3,19.95-1.16.15-.02.3-.04.45-.06.53-.07,1.07-.14,1.6-.23.18-.03.35-.06.53-.09.5-.08,1.01-.16,1.51-.25.08-.01.15-.03.23-.04,1.95-.35,3.88-.78,5.78-1.29,7.92-2.13,15.5-5.91,22.85-9.96,2.06-1.14,4.1-2.29,6.13-3.44.61-.35,1.22-.69,1.82-1.03.86-.49,1.72-.98,2.58-1.45.37-.21.73-.43,1.08-.66,2.18-1.42,4.14-3.27,6.05-5.08,1.1-1.04,2.17-2.06,3.27-2.98,1.65-1.4,3.35-2.6,5.27-3.36,3.97-1.57,7.58-3.49,10.89-5.75v-.61Z"/>
      <path class="cls-1" d="M1211.25,349.8c-5.98-7.34-14.98-11.43-23.74-15.41l-2.02-.92c-2.25-1.03-4.5-2.16-6.68-3.26-4.41-2.22-8.96-4.51-13.69-6.03-4-1.28-9.12-1.55-15.21-.79-3.15.39-6.37.76-9.49,1.12-1.53.18-3.07.35-4.61.53-10.8,1.27-21.81,2.74-32.28,5.6-6.31,1.73-12.05,5.88-17.59,9.9-2.4,1.74-4.88,3.54-7.37,5.11-.84.53-1.57,1.39-1.85,2.19-.42,1.17-.66,2.42-.89,3.62-.08.4-.16.81-.24,1.21-.43,2.02-.95,4.1-1.45,6.1-2.66,10.66-5.4,21.64,3.56,30.77.93.94,1.98,1.87,3.17,2.77,4.19,3.17,9.4,4.99,14.82,6.73,2.4.77,6.86.17,7.7-1.38.28-.51.39-1.09.39-1.76,0-1.11-.31-2.46-.69-4.1-.26-1.14-.56-2.41-.79-3.81l14.9,5.42,10.55-26.55s.03-.01.05-.02c1.74-.74,3.19-.98,4.32-.69,4.47,1.12,9.2,1.7,13.78,2.26,9.96,1.21,20.27,2.46,28.34,9.48.63.54,1.24,1.1,1.84,1.68,4.22,4.02,7.93,8.73,11.52,13.3,2.33,2.96,4.75,6.03,7.28,8.88,6.98,7.86,4.57,15.39,2.03,23.35-.59,1.85-1.21,3.77-1.7,5.7-5.89,22.92-23.49,30.54-44.19,37.5-1.72.58-3.33,1.63-4.88,2.65-2,1.31-3.9,2.54-5.97,2.83-1.54.22-3.09.44-4.64.66-9.8,1.42-19.93,2.88-29.72,2.13-16.91-1.31-33.6-4.14-53.47-7.99-3.62-.7-7.02-3.01-10.31-5.24-1.46-.99-2.96-2.01-4.47-2.88l1.43-3.2c1.49.42,2.98.83,4.46,1.26,3.31.94,6.74,1.91,10.13,2.79,25.91,6.77,51.03,8.89,76.78,6.48,10.55-.99,17.7-5.27,25.3-10.33,2.7-1.8,5.59-3.45,8.38-5.04,3.94-2.25,8.01-4.57,11.64-7.37,1.87-1.44,3.57-3.21,5.09-5.25,4.55-6.1,7.39-14.58,7.71-23.6.23-6.59-.9-12.59-3.22-17.43-1.39-2.91-3.2-5.4-5.39-7.35l-.86-.77c-10.34-9.23-21.02-18.78-36.77-17.62-1.66.12-3.35-.33-4.84-.73-.62-.16-1.2-.32-1.71-.42l-.19-.04-.08.17c-7.75,16.17-15.64,29.87-33.85,33.71-5,1.05-9.92,2.86-14.67,4.6-2.53.93-5.14,1.88-7.73,2.72-3.76,1.21-6.29,1.21-7.75-.02-1.37-1.14-1.83-3.47-1.37-6.9.2-1.47-.74-3.18-1.64-4.66-.8-1.33-1.74-2.63-2.64-3.89-1.53-2.13-3.12-4.34-4.06-6.73-5.48-13.91-4.89-27.25,1.77-39.64,1.98-3.68,5.3-6.76,8.51-9.74,1-.93,2.04-1.89,3.02-2.85,1.18-1.17,2.36-2.39,3.5-3.58,5.7-5.92,11.6-12.05,20.54-13.3,2.41-.34,4.87-.72,7.25-1.1,7.98-1.25,16.25-2.55,24.29-2.31,17.86.53,33.07,2.1,46.5,4.79,11.3,2.26,23.75,5.29,34.22,12.4v-.61c-.13-.09-.26-.18-.39-.27-10.39-6.83-22.62-9.78-33.73-12.01-13.46-2.69-28.69-4.26-46.58-4.79-8.11-.24-16.38,1.06-24.39,2.31-2.38.37-4.83.76-7.24,1.1-7.97,1.12-13.53,6-18.65,11.21-.73.74-1.45,1.5-2.17,2.24-1.14,1.18-2.32,2.41-3.5,3.57-.97.96-2,1.91-3.01,2.84-2.28,2.11-4.6,4.28-6.49,6.68-.8,1.02-1.52,2.07-2.12,3.18-6.72,12.52-7.33,26-1.79,40.06.97,2.45,2.57,4.68,4.12,6.84.25.35.5.71.75,1.06.65.91,1.29,1.84,1.86,2.79.54.89,1.48,2.46,1.58,3.79.01.19.01.37-.01.55-.49,3.67.02,6.07,1.55,7.35,1.6,1.34,4.29,1.37,8.22.11,2.6-.84,5.22-1.8,7.75-2.72,4.74-1.74,9.64-3.53,14.61-4.58,18.36-3.87,26.33-17.59,34.11-33.81.45.09.96.23,1.49.37,1.53.41,3.27.87,5.01.75,15.51-1.12,26.14,8.34,36.4,17.5l.87.77c5.73,5.11,8.8,14,8.44,24.39-.42,11.89-5.25,22.8-12.6,28.47-3.6,2.78-7.66,5.09-11.58,7.33-2.8,1.6-5.69,3.25-8.41,5.06-7.55,5.03-14.64,9.28-25.07,10.25-25.7,2.41-50.75.29-76.61-6.46-2.36-.62-4.72-1.27-7.06-1.93-1.02-.29-2.05-.57-3.06-.86-1.56-.44-3.11-.88-4.67-1.31l-.21-.06-1.79,4.01.2.11c1.03.59,2.06,1.25,3.08,1.93.52.35,1.05.7,1.56,1.05,1.18.8,2.37,1.61,3.59,2.35,2.22,1.36,4.5,2.5,6.9,2.96,15.36,2.98,28.83,5.34,41.96,6.87,3.87.45,7.71.83,11.57,1.13,1.23.1,2.47.16,3.72.19,8.67.21,17.52-1.07,26.11-2.32,1.55-.22,3.1-.45,4.64-.66,2.19-.3,4.21-1.63,6.18-2.91,1.53-1,3.11-2.03,4.77-2.59.65-.22,1.3-.44,1.94-.66,19.99-6.84,36.81-14.75,42.57-37.19.49-1.92,1.1-3.83,1.69-5.67,1.83-5.73,3.58-11.23,1.92-16.82-.69-2.32-1.95-4.65-4.05-7.02-2.52-2.84-4.93-5.9-7.26-8.86-3.09-3.93-6.27-7.96-9.78-11.58-.01-.01-.02-.02-.03-.03-1.16-1.19-2.36-2.34-3.61-3.43-8.19-7.12-18.57-8.38-28.61-9.6-1.07-.13-2.14-.26-3.22-.4-3.53-.45-7.1-.99-10.5-1.84-.05-.01-.1,0-.15-.02-1.08-.23-2.42-.04-3.95.54-.18.07-.35.12-.53.2-.06.02-.1.04-.09.04l-.13.03-10.46,26.32-14.84-5.4-.4-.14.06.42c.06.4.13.78.2,1.16.21,1.13.45,2.17.67,3.11.51,2.19.89,3.85.55,5.03-.05.17-.11.33-.19.48-.65,1.2-4.83,1.87-7.11,1.14-5.38-1.72-10.55-3.53-14.67-6.65-11.32-8.58-9.85-19.29-7.31-29.89.25-1.04.51-2.09.77-3.13.5-2.01,1.02-4.09,1.45-6.12.09-.4.17-.81.24-1.21.23-1.19.47-2.41.87-3.55.18-.5.56-1.01,1.02-1.45.03-.03.05-.06.09-.09.02-.01.03-.02.05-.04.16-.13.32-.26.49-.37,2.5-1.58,4.99-3.38,7.4-5.12,4.69-3.39,9.51-6.88,14.67-8.9.53-.21,1.06-.4,1.6-.58.39-.12.77-.24,1.16-.35,11.93-3.27,24.58-4.72,36.82-6.12,3.12-.36,6.34-.73,9.49-1.12,3.23-.4,6.18-.51,8.83-.33,2.28.15,4.34.51,6.16,1.1,4.69,1.5,9.23,3.79,13.62,6,2.18,1.1,4.44,2.24,6.7,3.27l2.02.92c8.9,4.04,18.05,8.2,23.95,15.76v-.81Z"/>
      <path class="cls-3" d="M959.66,475.22c5.59,7.66,11.87,11.4,21.48,12.73-.31-.5-.61-1.01-.9-1.5-.93-1.59-1.9-3.24-3.22-4.41-4.64-4.12-9.45-8.23-14.1-12.2-7.67-6.54-15.59-13.31-23.01-20.36-13.99-13.3-24.66-24.49-33.58-35.21-8.38-10.08-14.9-20.22-19.36-30.15-7.02-15.61-13.33-32.59-19.28-51.91-4.25-13.8-6.78-26.77-7.51-38.54-.57-9.26,1.25-18.81,3.01-28.05.28-1.49.57-2.98.84-4.46,1.13-6.13,2.93-12.29,4.77-17.97.61-1.89,1.23-3.73,1.84-5.5,1.5-4.39,3.86-8.46,6.15-12.41,3.89-6.69,7.91-13.6,7.82-22.29-.03-3.34-.12-5.76-.79-7.36-.22-.54-.51-.98-.88-1.34-1.16-1.13-3.18-1.54-7.24-1.45-5.82.12-11.74.11-17.47.1-9.26-.02-18.84-.03-28.24.49-26.6,1.46-50.4,3.28-72.77,5.58-5.4.55-10.75,2.8-15.92,4.97-1.56.65-3.17,1.33-4.74,1.95-10.89,4.25-21.87,8.81-32.48,13.23l-1.64.68c-1.23.51-2.45,1.23-3.63,1.92-1.55.91-3.13,1.84-4.77,2.32-.55.16-1.1.28-1.65.32-16.28,1.36-26.39,12.06-36.18,22.4-2.46,2.6-5.01,5.29-7.6,7.78-5.26,5.04-9.1,11.79-12.81,18.32-.79,1.38-1.57,2.76-2.37,4.12-.36.61-.72,1.22-1.09,1.84-2.24,3.77-4.54,7.63-5.67,11.53-.38,1.3-.63,2.6-.7,3.91-.61,10.75.17,22.01,2.24,32.56,2.65,13.53,9.91,25.48,20.44,33.64,10.52,8.15,23.83,12.17,37.51,11.31,6.84-.43,13.75-1.96,20.42-3.43,2.99-.66,6.09-1.35,9.14-1.93,2.47-.47,4.78-1.07,6.94-1.81,15.1-5.2,22.57-17.14,22.24-35.59-2.03,1.28-4,2.27-5.9,2.96-8.24,3.03-15.26.61-20.93-7.22-3.54-4.89-4.48-10.02-4.6-15.37-.05-2.43.06-4.91.18-7.43.12-2.61.24-5.3.17-8-2.94,3.11-6.42,7.2-8.25,11.87-.24.63-.47,1.24-.67,1.84-.41,1.2-.74,2.35-.99,3.44-.13.55-.24,1.09-.33,1.61-2.56,14.72,8.88,20.28,19.99,25.68,2.42,1.18,4.93,2.4,7.21,3.68l.21.12-.1.21c-5.21,10.6-14.51,14.15-23.51,17.59-4.83,1.85-9.83,3.76-14.02,6.74-2.6,1.86-7.25.84-11.75-.15-1.65-.36-3.2-.7-4.66-.91-2.03-.29-4.05-.87-6-1.44-1.45-.42-2.94-.85-4.43-1.16-9.11-1.88-24.22-16.74-27.57-26.58-.22-.66-.4-1.29-.51-1.9-.4-2.15-.91-4.35-1.39-6.48-1.27-5.57-2.59-11.32-2.33-16.93.1-2.15,0-4.39-.09-6.56-.29-6.76-.58-13.74,4.69-19.95,3.08-3.62,5.79-7.67,8.41-11.59,2.66-3.98,5.41-8.09,8.55-11.77l.74-.86c5.81-6.8,11.81-13.84,19.29-18.04,4.78-2.68,9.54-5.63,14.15-8.47,13.51-8.34,27.48-16.97,43.79-20.38,3.82-.8,7.63-2.01,11.32-3.18,4.58-1.45,9.32-2.96,14.1-3.69,12.5-1.9,26.01-3.18,40.17-3.81,12.5-.55,25.93-.89,39.4.41,3.14.3,6.22,1.53,9.2,2.72,6.22,2.48,12.66,5.05,20.22-.45l.55-.4-.16.66c-1.72,7.26-4.06,12.97-6.31,18.19-6.02,14-12.06,30.79-11.14,49.07l.02.37c.12,2.39.25,4.86-.5,7.01-1.93,5.54-2.7,11.11-2.7,16.59,0,9.13,2.13,17.99,4.49,25.96,4.75,16.01,11.99,31.6,19,46.67,2.02,4.35,4.11,8.85,6.11,13.29.97,2.15,1.98,4.33,3.04,6.5,4.61,9.42,10.29,18.88,18.73,27.03,6.35,6.13,12.25,12.92,17.96,19.49,5.18,5.96,10.54,12.13,16.22,17.78,3.34,3.33,7.4,6.15,11.32,8.88,5.27,3.67,10.73,7.47,14.4,12.51Z"/>
      <polygon class="cls-1" points="981.75 488.89 981.84 488.83 981.65 488.74 981.75 488.89"/>
      <path class="cls-1" d="M982.4,488.44l.42-.28-.46-.05.02.18c0,.05.02.11.03.16Z"/>
      <path class="cls-1" d="M981.98,488.12l.06-.06c-.08,0-.16-.02-.24-.03,0,0-.01,0-.02,0-.15-.23-.29-.48-.44-.72-.07-.12-.15-.24-.22-.37-.15-.25-.31-.5-.46-.75-.95-1.63-1.94-3.31-3.32-4.53-4.65-4.13-9.46-8.23-14.11-12.2-7.66-6.54-15.58-13.3-22.99-20.34-13.97-13.28-24.63-24.46-33.54-35.17-1.04-1.26-2.06-2.51-3.05-3.77-6.9-8.8-12.36-17.62-16.25-26.27-4.07-9.06-7.9-18.6-11.56-28.77-2.64-7.34-5.2-14.99-7.69-23.08-4.24-13.76-6.76-26.69-7.49-38.42-.39-6.27.34-12.69,1.39-19.06.49-2.97,1.05-5.94,1.61-8.87.28-1.49.57-2.98.84-4.47.02-.1.04-.21.06-.31,1.36-7.23,3.55-14.24,5.78-20.88.25-.74.5-1.48.75-2.2,1.48-4.34,3.84-8.39,6.11-12.32,3.92-6.75,7.97-13.72,7.88-22.54h0c-.05-4.58-.19-7.48-1.82-9.06-.32-.31-.69-.57-1.13-.78-1.24-.6-3.07-.84-5.85-.82-.21,0-.4,0-.62,0-5.79.12-11.68.11-17.37.1h-.1c-9.27-.02-18.86-.03-28.26.49-18.3,1-35.27,2.18-51.37,3.56-.3.03-.6.05-.9.08-1.16.1-2.32.2-3.47.3-.61.05-1.21.11-1.82.17-.83.08-1.67.15-2.5.23-4.3.4-8.55.81-12.74,1.24-5.48.56-10.86,2.82-16.07,5.01-1.55.65-3.16,1.33-4.73,1.94-8.17,3.19-16.39,6.55-24.47,9.9-2.69,1.12-5.37,2.23-8.02,3.33l-1.64.68c-1.26.52-2.5,1.25-3.7,1.95-.26.15-.53.31-.79.46-1.82,1.05-3.58,1.97-5.43,2.12-16.47,1.38-26.65,12.15-36.5,22.56-2.46,2.6-5,5.28-7.58,7.76-5.31,5.09-9.17,11.87-12.9,18.43-.79,1.38-1.57,2.76-2.36,4.12-.36.61-.72,1.22-1.09,1.84-.75,1.27-1.51,2.55-2.24,3.84-2.16,3.87-3.98,7.82-4.2,11.83-.15,2.7-.22,5.43-.2,8.17.04,5.49.42,11.02,1.13,16.46.36,2.72.79,5.41,1.31,8.06,2.68,13.65,10,25.7,20.62,33.93,9.95,7.71,22.38,11.76,35.26,11.52.86-.02,1.72-.05,2.58-.1,6.88-.43,13.8-1.96,20.5-3.44,2.99-.66,6.08-1.35,9.13-1.92,7.56-1.43,13.68-4.14,18.36-8.11,7.4-6.28,11.17-15.72,11.24-28.24,0-.66,0-1.33-.02-2v-.45s-.39.24-.39.24c-5.37,3.46-10.28,4.86-14.71,4.21-.12-.02-.24-.05-.36-.08-.43-.07-.86-.15-1.27-.26-.36-.1-.72-.23-1.07-.36-.17-.06-.35-.11-.52-.17-.51-.21-1.02-.44-1.52-.71-.01,0-.02,0-.03-.02-.95-.51-1.88-1.15-2.77-1.89-.06-.05-.12-.09-.18-.14-.2-.17-.4-.37-.6-.55-1.21-1.1-2.38-2.4-3.48-3.93-3.78-5.23-4.53-10.78-4.52-16.59,0-1.94.1-3.9.19-5.9.13-2.81.26-5.72.16-8.64l-.02-.59-.41.43c-3.06,3.19-6.81,7.49-8.76,12.46-1.87,4.78-2.56,8.79-2.38,12.22.6,11.24,10.74,16.18,20.62,20.99,1.76.85,3.56,1.73,5.28,2.64.57.3,1.14.61,1.69.92-5.14,10.26-14.29,13.75-23.13,17.13-4.86,1.86-9.89,3.78-14.13,6.8-.91.65-2.11.91-3.5.94-2.31.05-5.11-.57-7.85-1.17-1.66-.36-3.22-.71-4.69-.91-2-.28-4-.86-5.93-1.42-1.46-.42-2.96-.86-4.47-1.17-9.37-1.94-25.93-18.73-27.69-28.07-.41-2.16-.91-4.37-1.4-6.5-1.26-5.53-2.57-11.26-2.32-16.79.1-2.17,0-4.42-.09-6.6-.28-6.66-.58-13.55,4.57-19.6,3.1-3.65,5.81-7.71,8.44-11.64,2.65-3.97,5.39-8.07,8.52-11.73l.74-.86c2.89-3.38,5.83-6.83,8.97-9.94,3.14-3.12,6.49-5.91,10.19-7.99,3.97-2.23,7.92-4.64,11.79-7.02.79-.49,1.59-.98,2.38-1.46,2.36-1.46,4.73-2.92,7.13-4.36,4.45-2.68,8.98-5.29,13.66-7.64,7.2-3.62,14.73-6.61,22.85-8.31,3.84-.8,7.67-2.02,11.37-3.19.15-.05.3-.09.45-.14,4.42-1.4,8.99-2.83,13.58-3.53,12.48-1.9,25.97-3.18,40.12-3.81,6.24-.28,12.72-.5,19.31-.49,3.3,0,6.62.07,9.96.21,3.34.14,6.7.36,10.06.69.61.06,1.22.16,1.83.29,2.45.5,4.88,1.46,7.24,2.4,5.81,2.32,11.8,4.71,18.75.76.46-.26.93-.56,1.4-.88-1.7,6.92-3.95,12.42-6.12,17.46-6.05,14.06-12.1,30.91-11.18,49.3l.02.37c.05.88.09,1.77.09,2.64,0,.88-.04,1.74-.17,2.57-.09.55-.21,1.09-.39,1.6-5.21,14.9-2.02,30.02,1.79,42.85,4.76,16.05,12.01,31.65,19.02,46.73.52,1.12,1.05,2.26,1.57,3.39,1.52,3.28,3.05,6.59,4.54,9.89,1.3,2.88,2.66,5.8,4.14,8.71,4.43,8.73,9.9,17.4,17.74,24.97,6.33,6.11,12.23,12.9,17.93,19.46.43.49.87.99,1.3,1.49,4.79,5.5,9.73,11.12,14.94,16.32,3.38,3.36,7.45,6.2,11.38,8.94,5.24,3.65,10.66,7.43,14.29,12.39,5.76,7.88,12.22,11.68,22.19,12.98l.54-.37ZM917.72,436.04c-5.71-6.57-11.61-13.36-17.96-19.49-8.44-8.15-14.12-17.61-18.73-27.03-1.06-2.17-2.07-4.35-3.04-6.5-2-4.44-4.09-8.94-6.11-13.29-7-15.07-14.25-30.65-19-46.67-2.36-7.97-4.49-16.83-4.49-25.96,0-5.48.76-11.05,2.7-16.59.75-2.15.62-4.62.5-7.01l-.02-.37c-.92-18.29,5.12-35.07,11.14-49.07,2.25-5.22,4.58-10.93,6.31-18.19l.16-.66-.55.4c-7.56,5.5-14,2.93-20.22.45-2.98-1.19-6.06-2.42-9.2-2.72-13.47-1.29-26.89-.96-39.4-.41-14.16.63-27.68,1.91-40.17,3.81-4.79.73-9.52,2.23-14.1,3.69-3.69,1.17-7.5,2.38-11.32,3.18-16.31,3.41-30.28,12.04-43.79,20.38-4.61,2.84-9.37,5.79-14.15,8.47-7.48,4.2-13.48,11.24-19.29,18.04l-.74.86c-3.14,3.68-5.89,7.79-8.55,11.77-2.62,3.92-5.33,7.97-8.41,11.59-5.27,6.2-4.97,13.19-4.69,19.95.09,2.17.19,4.41.09,6.56-.26,5.6,1.06,11.36,2.33,16.93.49,2.13.99,4.33,1.39,6.48.11.61.29,1.24.51,1.9,3.36,9.84,18.46,24.69,27.57,26.58,1.49.31,2.98.74,4.43,1.16,1.95.56,3.97,1.15,6,1.44,1.45.21,3.01.55,4.66.91,4.5.98,9.14,2,11.75.15,4.19-2.98,9.18-4.89,14.02-6.74,9-3.44,18.3-6.99,23.51-17.59l.1-.21-.21-.12c-2.28-1.29-4.79-2.5-7.21-3.68-11.11-5.4-22.55-10.97-19.99-25.68.09-.53.2-1.06.33-1.61.26-1.1.59-2.25.99-3.44.2-.6.43-1.21.67-1.84,1.83-4.67,5.3-8.76,8.25-11.87.07,2.7-.05,5.4-.17,8-.12,2.52-.23,5-.18,7.43.12,5.35,1.06,10.48,4.6,15.37,5.67,7.84,12.69,10.25,20.93,7.22,1.9-.7,3.87-1.69,5.9-2.96.33,18.45-7.14,30.39-22.24,35.59-2.16.74-4.47,1.35-6.94,1.81-3.05.58-6.15,1.26-9.14,1.93-6.67,1.48-13.58,3-20.42,3.43-13.67.85-26.99-3.17-37.51-11.31-10.53-8.16-17.79-20.1-20.44-33.64-2.07-10.55-2.84-21.81-2.24-32.56.07-1.3.32-2.61.7-3.91,1.13-3.9,3.43-7.76,5.67-11.53.37-.62.73-1.24,1.09-1.84.79-1.36,1.58-2.74,2.37-4.12,3.71-6.53,7.55-13.27,12.81-18.32,2.6-2.49,5.14-5.18,7.6-7.78,9.78-10.34,19.9-21.04,36.18-22.4.56-.05,1.11-.16,1.65-.32,1.64-.49,3.22-1.42,4.77-2.32,1.18-.69,2.41-1.41,3.63-1.92l1.64-.68c10.62-4.42,21.59-8.98,32.48-13.23,1.58-.62,3.19-1.29,4.74-1.95,5.17-2.17,10.52-4.42,15.92-4.97,22.37-2.29,46.17-4.12,72.77-5.58,9.39-.51,18.98-.5,28.24-.49,5.73,0,11.65.02,17.47-.1,4.06-.08,6.08.33,7.24,1.45.37.36.66.81.88,1.34.67,1.61.75,4.02.79,7.36.09,8.68-3.93,15.6-7.82,22.29-2.29,3.94-4.66,8.02-6.15,12.41-.6,1.77-1.22,3.61-1.84,5.5-1.84,5.68-3.64,11.84-4.77,17.97-.27,1.48-.56,2.97-.84,4.46-1.76,9.24-3.58,18.79-3.01,28.05.73,11.77,3.26,24.74,7.51,38.54,5.95,19.32,12.26,36.3,19.28,51.91,4.46,9.93,10.98,20.07,19.36,30.15,8.92,10.73,19.59,21.92,33.58,35.21,7.42,7.05,15.35,13.82,23.01,20.36,4.65,3.97,9.46,8.07,14.1,12.2,1.32,1.17,2.28,2.82,3.22,4.41.29.5.59,1.01.9,1.5-9.61-1.33-15.88-5.07-21.48-12.73-3.68-5.03-9.13-8.83-14.4-12.51-3.92-2.73-7.97-5.55-11.32-8.88-5.67-5.65-11.03-11.82-16.22-17.78Z"/>
      <path class="cls-3" d="M1016.87,452.07c-1.75-.71-3.58-1.35-5.34-1.97-4.09-1.44-8.32-2.93-11.9-5.31-10.34-6.88-20.48-14.47-30.15-22.56-17.75-14.85-30.75-33.01-38.66-53.99-.71-1.88-1.42-3.76-2.13-5.64-6.31-16.65-12.84-33.87-16.17-51.4-.57-2.99-1.29-6.08-1.99-9.07-3.02-12.85-6.13-26.14.67-39.41.48-.93.36-2.18.16-4.27-.11-1.12-.24-2.49-.3-4.15-1.12,1.13-2.15,2.04-3.07,2.85-1.73,1.53-2.98,2.63-3.29,3.89-.35,1.43-.73,2.87-1.11,4.31-1.62,6.15-3.29,12.51-2.94,18.63.89,15.47,2.78,31.67,5.78,49.51,1.66,9.9,3.7,20.26,8.59,28.54,13.02,22.05,27.72,44.99,46.87,63.44,14.07,13.55,27.05,21.94,40.84,26.38,2.98.96,6.17,1.44,9.26,1.92,1.35.21,2.75.42,4.12.67l.79-2.36Z"/>
      <path class="cls-1" d="M1011.69,449.62c-4.06-1.43-8.26-2.91-11.78-5.25-10.32-6.87-20.45-14.45-30.11-22.53-8.35-6.99-15.63-14.72-21.83-23.12-6.94-9.4-12.52-19.63-16.68-30.66-.71-1.88-1.42-3.76-2.13-5.64-6.31-16.63-12.83-33.83-16.15-51.32-.43-2.25-.94-4.56-1.47-6.83-.18-.76-.35-1.51-.53-2.26-2.99-12.76-6.09-25.96.63-39.06.07-.13.12-.27.17-.41.14-.43.2-.91.21-1.47,0-.74-.07-1.61-.17-2.67-.09-.93-.19-2.03-.26-3.33-.02-.43-.04-.89-.06-1.37l-.02-.59-.41.42c-1.27,1.31-2.43,2.33-3.45,3.23-1.8,1.59-3.1,2.74-3.44,4.14-.35,1.43-.73,2.86-1.11,4.31-.39,1.49-.79,2.99-1.16,4.5-.97,3.95-1.76,7.94-1.84,11.88,0,.02,0,.05,0,.07-.02.78,0,1.56.04,2.33.22,3.87.51,7.79.86,11.77,1.05,11.93,2.68,24.4,4.93,37.8,1.25,7.46,2.72,15.18,5.45,22.1.16.42.34.82.51,1.23.07.16.13.32.2.48.74,1.69,1.56,3.33,2.49,4.9,13.04,22.08,27.76,45.06,46.95,63.55,14.13,13.61,27.17,22.03,41.03,26.5,3.01.97,6.23,1.46,9.34,1.93,1.42.22,2.89.44,4.32.71l.21.04,1.07-3.22-.22-.09c-1.83-.75-3.74-1.42-5.58-2.07ZM1002.71,451.85c-13.79-4.44-26.77-12.82-40.84-26.38-19.15-18.45-33.84-41.39-46.87-63.44-4.89-8.28-6.93-18.64-8.59-28.54-3-17.85-4.89-34.04-5.78-49.51-.35-6.12,1.32-12.48,2.94-18.63.38-1.45.76-2.88,1.11-4.31.31-1.25,1.56-2.36,3.29-3.89.92-.81,1.94-1.72,3.07-2.85.06,1.66.2,3.03.3,4.15.2,2.09.32,3.34-.16,4.27-6.8,13.27-3.68,26.56-.67,39.41.7,2.99,1.43,6.08,1.99,9.07,3.33,17.53,9.86,34.75,16.17,51.4.71,1.88,1.43,3.76,2.13,5.64,7.9,20.97,20.91,39.14,38.66,53.99,9.67,8.09,19.82,15.68,30.15,22.56,3.57,2.38,7.8,3.87,11.9,5.31,1.77.62,3.59,1.27,5.34,1.97l-.79,2.36c-1.37-.25-2.76-.46-4.12-.67-3.09-.47-6.28-.96-9.26-1.92Z"/>
      <path class="cls-3" d="M998.62,178.23c1.59-.48,3.19-.96,4.81-1.43,7.36-2.16,14.91-4.11,22.21-6,3.28-.85,6.57-1.7,9.84-2.56l-.61-2.36c-4.72-.5-9.4-.74-14.02-.74-27.42,0-53.06,8.67-74.85,25.45-15.07,11.6-33.61,31.87-36.61,62.66.49-.27.96-.55,1.42-.83,3.22-2,5.74-4.43,7.5-7.23,2.49-3.95,4.8-8.13,7.03-12.17,3.99-7.21,8.11-14.67,13.36-21.04,15.17-18.44,36.07-26.53,59.92-33.73Z"/>
      <path class="cls-1" d="M1036.08,168.59h0s-.46-1.77-.46-1.77l-.36-1.4-.17-.02c-4.64-.49-9.24-.74-13.8-.76-20.54-.07-40.09,4.7-57.79,14.07-6.17,3.27-12.12,7.09-17.81,11.47-4.28,3.3-8.84,7.29-13.25,12.02-11.26,12.09-21.53,29.01-23.6,51.46l-.04.46.41-.22c4.18-2.23,7.39-5.08,9.52-8.47,2.49-3.96,4.81-8.14,7.05-12.19.5-.9,1-1.8,1.5-2.71,3.52-6.33,7.24-12.71,11.81-18.26,14.08-17.12,33.17-25.28,54.97-32.12,3.12-.98,6.29-1.93,9.51-2.88,7.35-2.16,14.89-4.11,22.19-6,3.36-.87,6.73-1.74,10.08-2.63l.24-.06ZM938.7,211.97c-5.24,6.38-9.37,13.83-13.36,21.04-2.24,4.04-4.55,8.22-7.03,12.17-1.77,2.8-4.28,5.23-7.5,7.23-.46.29-.93.56-1.42.83,3-30.79,21.54-51.06,36.61-62.66,21.79-16.77,47.43-25.45,74.85-25.45,4.63,0,9.31.25,14.02.74l.61,2.36c-3.28.87-6.56,1.72-9.84,2.56-7.3,1.89-14.85,3.84-22.21,6-1.61.48-3.22.95-4.81,1.43-23.84,7.2-44.75,15.29-59.92,33.73Z"/>
      <path class="cls-3" d="M982.52,489.13c.81,4.38,1.66,6.97,3.46,7.99,2.05,1.16,5.53.27,10.83-1.72l-14.29-6.27Z"/>
      <path class="cls-1" d="M982.42,488.53s-.01-.06-.02-.09c0-.05-.02-.11-.03-.16l-.02-.18-.03-.32-.28.28-.06.06-.54.37-.14.09.35.15.19.08.13.06c.86,4.73,1.75,7.52,3.76,8.67.71.4,1.54.59,2.53.59,1.11,0,2.42-.24,3.96-.67,1.53-.43,3.3-1.05,5.34-1.83l.57-.22h0s-15.72-6.89-15.72-6.89ZM985.98,497.11c-1.8-1.02-2.64-3.61-3.46-7.99l14.29,6.27c-5.29,1.99-8.78,2.88-10.83,1.72Z"/>
      <path class="cls-5" d="M219.88,160.3c-11.2,2.39-22.08,6.26-33.18,9.23-20.51,5.48-39.81,13.8-55.91,27.61-7.75,6.65-15.81,9.82-25.4,10.53-6.68.49-13.46.12-20.04,1.14-11.59,1.81-23.49,1.95-33.57,10.12-14.12,11.45-23.57,25.99-30.36,42.33-3.83,9.23-7.04,18.99-8.56,28.82-1.63,10.5-.47,21.41-1.38,32.06-1.15,13.57,12.6,40.77,25.39,47.26,6.45,3.28,12.72,7.14,18.45,11.55,12.82,9.85,26.26,14.02,41.13,5.3,13.99-8.21,14.01-22.16-.48-35.37-4.49-4.09-9.03-6-13.22-.14-5.53,7.75-15.02,7.65-20.76,5.36-6.94-2.77-13.93-10.2-16.73-17.26-3.06-7.72-.14-17.6-1.99-26.07-5.2-23.82,8.64-41.16,22.36-55.48,15.19-15.85,35.69-26.6,54.27-39.85,8.28,21.33,8.71,21.59,4.72,39.89-2.68,12.29.68,22.45,7.93,31.98,1.41,1.86,2.68,3.85,3.78,5.91,11.72,22.09,25.85,41.84,50.63,50.81,3.73,1.35,8.02,1.98,11.96,1.7,10.13-.7,21.2.16,30.09-3.72,14.42-6.29,26.08-16.52,29.28-33.99,1.85-10.1-5.41-24.27-15.62-26.17-10.55-1.96-15.91,2.42-14.43,13.27.85,6.27,4.05,12.23,6.69,19.72-3.21.85-7.91,3.47-12.28,3-10.87-1.17-21.54-4.12-32.39-5.67-17.79-2.55-44.36-24.04-45.75-45.56-.86-13.41-8.89-28.07,4.72-40.2,9.93-8.85,19.02-18.64,28.98-27.45,5.66-5,14.24-7.66,18-13.6,3.57-5.64,8.35-6.53,12.98-8.41,4.05-1.64,8.88-1.25,13.27-2.22,10.54-2.33,21.01-4.93,31.51-7.42-7.71-3.15-15.1-4.39-22.43-5.95-3.97-.85-8.17-3.83-11.68-3.08Z"/>
      <path class="cls-4" d="M623.48,235.35c4.2-6.1.92-9.25-4.46-10.91-3.09-.95-6.64-.66-9.96-.52-20.91.91-40.14,6.09-58.5,17.22-18.1,10.97-21.52,24.73-6.4,39.05,1.07,1.01,1.91,2.26,4.36,5.2,4.67-5.81,9.38-10.45,12.61-15.96,5.95-10.16,14.15-12.82,24.09-6.77,7.52,4.58,16.42,4.29,20.97-1.74,6.19-8.2,11.45-17.1,17.29-25.58Z"/>
    </g>
  </g>
</svg>