<?xml version="1.0" encoding="UTF-8"?>
<svg xmlns="http://www.w3.org/2000/svg" version="1.1" viewBox="0 0 16 16">
  <defs>
    <style>
      .cls-1 {
        fill: #000;
      }

      .cls-1, .cls-2 {
        stroke-width: 0px;
      }

      .cls-2 {
        fill: #fff;
      }

      .cls-3 {
        display: none;
      }
    </style>
  </defs>
  <g id="Capa_1" data-name="Capa 1" class="cls-3">
    <path class="cls-1" d="M14,16c1.1,0,2-.9,2-2V2C16,.9,15.1,0,14,0H2C.9,0,0,.9,0,2v12c0,1.1.9,2,2,2h12Z"/>
  </g>
  <g id="Capa_2" data-name="Capa 2">
    <path class="cls-2" d="M5.9,5.2l4.1,4.1v-2.77c0-.28.22-.5.5-.5s.5.22.5.5v3.97c0,.28-.22.5-.5.5h-3.98c-.28,0-.5-.22-.5-.5s.22-.5.5-.5h2.77l-4.1-4.1c-.2-.19-.2-.51-.01-.71.19-.2.51-.2.71-.01,0,0,0,0,.01.01"/>
  </g>
</svg>