<?xml version="1.0" encoding="UTF-8"?>
<svg id="Capa_1" data-name="Capa 1" xmlns="http://www.w3.org/2000/svg" version="1.1" viewBox="0 0 307.7 140.31">
  <defs>
    <style>
      .cls-1 {
        fill: #e84134;
      }

      .cls-1, .cls-2, .cls-3, .cls-4, .cls-5, .cls-6 {
        stroke-width: 0px;
      }

      .cls-2 {
        fill: #5f5e5e;
        opacity: .2;
      }

      .cls-3 {
        fill: #5e5e5d;
      }

      .cls-7, .cls-4 {
        fill: #343333;
      }

      .cls-8 {
        stroke: #e84134;
      }

      .cls-8, .cls-9 {
        fill: none;
        stroke-miterlimit: 10;
      }

      .cls-5 {
        fill: #e3e3e2;
      }

      .cls-9 {
        stroke: #5f5e5e;
        stroke-width: .25px;
      }

      .cls-6, .cls-10 {
        fill: #e84134;
      }

      .cls-11 {
        font-family: ohtaku-Regular, ohtaku;
        font-size: 66.71px;
      }
    </style>
  </defs>
  <rect class="cls-3" x="-2173.14" y="591.05" width="693.57" height=".92"/>
  <rect class="cls-3" x="-2173.14" y="627.86" width="693.57" height=".92"/>
  <path class="cls-5" d="M-2173.14,629.71h25.84v-37.71h-25.84v37.71ZM-1479.57,592h-666.81v37.71h666.81v.48-38.68.49Z"/>
  <polygon class="cls-3" points="-2173.14 591.51 -2173.14 591.97 -2147.3 591.97 -2146.37 591.97 -1479.57 591.97 -1479.57 591.51 -2173.14 591.51"/>
  <rect class="cls-3" x="-2173.14" y="629.32" width="693.57" height=".92"/>
  <rect class="cls-3" x="-2173.14" y="164.16" width="362.77" height=".92"/>
  <rect class="cls-3" x="-2173.14" y="200.97" width="362.77" height=".92"/>
  <path class="cls-5" d="M-2173.14,202.81h25.84v-37.71h-25.84v37.71ZM-1810.36,165.1h-336.01v37.71h336.01v.48-38.68.49Z"/>
  <polygon class="cls-3" points="-2173.14 164.62 -2173.14 165.08 -2147.3 165.08 -2146.37 165.08 -1810.36 165.08 -1810.36 164.62 -2173.14 164.62"/>
  <rect class="cls-3" x="-2173.14" y="202.42" width="362.77" height=".92"/>
  <g>
    <path class="cls-6" d="M-2095.79,1099.8v114.8c0,7.04-5.71,12.75-12.75,12.75h-114.8c-7.04,0-12.75-5.71-12.75-12.75v-114.8c0-7.04,5.71-12.75,12.75-12.75h114.8c7.04,0,12.75,5.71,12.75,12.75ZM-2121.3,1201.85v-89.29h-89.29v89.29h89.29Z"/>
    <path class="cls-6" d="M-1928.39,1227.35h-25.51v-63.78l-71.46,7.94-5.08,55.84h-25.51l4.82-52.97-17.57,1.95v-25.51l19.91-2.21,5.6-61.57h25.51l-5.33,58.7,69.11-7.68v-51.02h25.51v140.31Z"/>
    <path class="cls-4" d="M-1846.04,1106.69l61.99-6.89v25.51l-59.69,6.63,5.07,55.83,80.13-11.45v25.51l-77.84,11.12,1.31,14.39h-25.51l-8.42-92.61-29.85,3.32v-25.51l27.55-3.06-2.04-22.45h25.51l1.79,19.64Z"/>
    <path class="cls-4" d="M-1733.92,1087.05h140.31l-9.4,103,9.4-.84v25.35l-11.73,1.07-1.07,11.73h-25.35l.84-9.39-103,9.39v-76.56c0-7.14,5.66-12.8,12.8-12.8h63.76v56.91l28.73-2.57,7.13-79.69h-112.42v-25.6ZM-1682.96,1189.2v-25.6h-25.35v25.6h25.35Z"/>
    <path class="cls-4" d="M-1537.65,1136.23l106.52-23.67v25.51l-108.88,24.19-1.37,15.08,110.25,24.5v25.51l-112.53-25-2.27,25h-25.51l12.75-140.31h25.51l-4.47,49.19Z"/>
    <path class="cls-4" d="M-1270.62,1189.94l9.35-.85v25.51l-11.69,1.06-1.06,11.69h-25.51l.85-9.35-102.89,9.35v-140.31h25.51v112.48l79.72-7.25,9.56-105.23h25.51l-9.35,102.9Z"/>
  </g>
  <g>
    <path class="cls-6" d="M-2006.53-439.17v114.8c0,7.04-5.71,12.75-12.75,12.75h-114.8c-7.04,0-12.75-5.71-12.75-12.75v-114.8c0-7.04,5.71-12.75,12.75-12.75h114.8c7.04,0,12.75,5.71,12.75,12.75ZM-2032.04-337.12v-89.29h-89.29v89.29h89.29Z"/>
    <path class="cls-6" d="M-1839.13-311.61h-25.51v-63.78l-71.46,7.94-5.08,55.83h-25.51l4.82-52.97-17.57,1.95v-25.51l19.91-2.21,5.6-61.56h25.51l-5.33,58.7,69.11-7.68v-51.02h25.51v140.3Z"/>
    <path class="cls-4" d="M-1756.78-432.28l61.99-6.89v25.51l-59.69,6.63,5.07,55.83,80.13-11.45v25.51l-77.84,11.12,1.31,14.39h-25.51l-8.42-92.6-29.85,3.32v-25.51l27.55-3.06-2.04-22.45h25.51l1.79,19.64Z"/>
    <path class="cls-4" d="M-1644.66-451.92h140.31l-9.4,102.99,9.4-.84v25.35l-11.73,1.07-1.07,11.73h-25.35l.84-9.39-103,9.39v-76.55c0-7.14,5.66-12.8,12.8-12.8h63.75v56.9l28.73-2.57,7.13-79.69h-112.42v-25.6ZM-1593.71-349.76v-25.6h-25.35v25.6h25.35Z"/>
    <path class="cls-4" d="M-1448.4-402.73l106.51-23.67v25.51l-108.88,24.19-1.37,15.08,110.25,24.5v25.51l-112.53-25-2.27,25h-25.51l12.75-140.3h25.51l-4.47,49.19Z"/>
    <path class="cls-4" d="M-1181.38-349.02l9.35-.85v25.51l-11.69,1.06-1.06,11.69h-25.51l.85-9.35-102.89,9.35v-140.31h25.51v112.48l79.72-7.25,9.56-105.23h25.51l-9.35,102.89Z"/>
  </g>
  <text class="cls-11" transform="translate(-3118.92 -370.4)"><tspan class="cls-10" x="0" y="0">OH</tspan><tspan class="cls-7" x="97.4" y="0">TAKU</tspan></text>
  <text class="cls-11" transform="translate(-3118.92 591.05)"><tspan class="cls-10"><tspan x="0" y="0">OH</tspan></tspan><tspan class="cls-7"><tspan x="0" y="48">TAKU</tspan></tspan></text>
  <text class="cls-11" transform="translate(-3118.92 100.87)"><tspan class="cls-10"><tspan x="0" y="0">OH</tspan></tspan><tspan class="cls-7"><tspan x="0" y="48">TA</tspan></tspan><tspan class="cls-7"><tspan x="0" y="96">KU</tspan></tspan></text>
  <path class="cls-9" d="M-2236.1,1087.04h12.76v12.76h-12.76v-12.76ZM-2223.34,1099.8h12.76v-12.76h-12.76v12.76ZM-2210.59,1099.8h12.76v-12.76h-12.76v12.76ZM-2197.83,1099.8h12.76v-12.76h-12.76v12.76ZM-2185.07,1099.8h12.76v-12.76h-12.76v12.76ZM-2172.32,1099.8h12.76v-12.76h-12.76v12.76ZM-2159.56,1099.8h12.76v-12.76h-12.76v12.76ZM-2146.81,1099.8h12.76v-12.76h-12.76v12.76ZM-2134.05,1099.8h12.76v-12.76h-12.76v12.76ZM-2121.29,1099.8h12.76v-12.76h-12.76v12.76ZM-2108.54,1099.8h12.76v-12.76h-12.76v12.76ZM-2236.1,1112.55h12.76v-12.76h-12.76v12.76ZM-2223.34,1112.55h12.76v-12.76h-12.76v12.76ZM-2210.59,1112.55h12.76v-12.76h-12.76v12.76ZM-2197.83,1112.55h12.76v-12.76h-12.76v12.76ZM-2185.07,1112.55h12.76v-12.76h-12.76v12.76ZM-2172.32,1112.55h12.76v-12.76h-12.76v12.76ZM-2159.56,1112.55h12.76v-12.76h-12.76v12.76ZM-2146.81,1112.55h12.76v-12.76h-12.76v12.76ZM-2134.05,1112.55h12.76v-12.76h-12.76v12.76ZM-2121.29,1112.55h12.76v-12.76h-12.76v12.76ZM-2108.54,1112.55h12.76v-12.76h-12.76v12.76ZM-2236.1,1125.31h12.76v-12.76h-12.76v12.76ZM-2223.34,1125.31h12.76v-12.76h-12.76v12.76ZM-2210.59,1125.31h12.76v-12.76h-12.76v12.76ZM-2197.83,1125.31h12.76v-12.76h-12.76v12.76ZM-2185.07,1125.31h12.76v-12.76h-12.76v12.76ZM-2172.32,1125.31h12.76v-12.76h-12.76v12.76ZM-2159.56,1125.31h12.76v-12.76h-12.76v12.76ZM-2146.81,1125.31h12.76v-12.76h-12.76v12.76ZM-2134.05,1125.31h12.76v-12.76h-12.76v12.76ZM-2121.29,1125.31h12.76v-12.76h-12.76v12.76ZM-2108.54,1125.31h12.76v-12.76h-12.76v12.76ZM-2236.1,1138.06h12.76v-12.76h-12.76v12.76ZM-2223.34,1138.06h12.76v-12.76h-12.76v12.76ZM-2210.59,1138.06h12.76v-12.76h-12.76v12.76ZM-2197.83,1138.06h12.76v-12.76h-12.76v12.76ZM-2185.07,1138.06h12.76v-12.76h-12.76v12.76ZM-2172.32,1138.06h12.76v-12.76h-12.76v12.76ZM-2159.56,1138.06h12.76v-12.76h-12.76v12.76ZM-2146.81,1138.06h12.76v-12.76h-12.76v12.76ZM-2134.05,1138.06h12.76v-12.76h-12.76v12.76ZM-2121.29,1138.06h12.76v-12.76h-12.76v12.76ZM-2108.54,1138.06h12.76v-12.76h-12.76v12.76ZM-2236.1,1150.82h12.76v-12.76h-12.76v12.76ZM-2223.34,1150.82h12.76v-12.76h-12.76v12.76ZM-2210.59,1150.82h12.76v-12.76h-12.76v12.76ZM-2197.83,1150.82h12.76v-12.76h-12.76v12.76ZM-2185.07,1150.82h12.76v-12.76h-12.76v12.76ZM-2172.32,1150.82h12.76v-12.76h-12.76v12.76ZM-2159.56,1150.82h12.76v-12.76h-12.76v12.76ZM-2146.81,1150.82h12.76v-12.76h-12.76v12.76ZM-2134.05,1150.82h12.76v-12.76h-12.76v12.76ZM-2121.29,1150.82h12.76v-12.76h-12.76v12.76ZM-2108.54,1150.82h12.76v-12.76h-12.76v12.76ZM-2236.1,1163.58h12.76v-12.76h-12.76v12.76ZM-2223.34,1163.58h12.76v-12.76h-12.76v12.76ZM-2210.59,1163.58h12.76v-12.76h-12.76v12.76ZM-2197.83,1163.58h12.76v-12.76h-12.76v12.76ZM-2185.07,1163.58h12.76v-12.76h-12.76v12.76ZM-2172.32,1163.58h12.76v-12.76h-12.76v12.76ZM-2159.56,1163.58h12.76v-12.76h-12.76v12.76ZM-2146.81,1163.58h12.76v-12.76h-12.76v12.76ZM-2134.05,1163.58h12.76v-12.76h-12.76v12.76ZM-2121.29,1163.58h12.76v-12.76h-12.76v12.76ZM-2108.54,1163.58h12.76v-12.76h-12.76v12.76ZM-2236.1,1176.33h12.76v-12.76h-12.76v12.76ZM-2223.34,1176.33h12.76v-12.76h-12.76v12.76ZM-2210.59,1176.33h12.76v-12.76h-12.76v12.76ZM-2197.83,1176.33h12.76v-12.76h-12.76v12.76ZM-2185.07,1176.33h12.76v-12.76h-12.76v12.76ZM-2172.32,1176.33h12.76v-12.76h-12.76v12.76ZM-2159.56,1176.33h12.76v-12.76h-12.76v12.76ZM-2146.81,1176.33h12.76v-12.76h-12.76v12.76ZM-2134.05,1176.33h12.76v-12.76h-12.76v12.76ZM-2121.29,1176.33h12.76v-12.76h-12.76v12.76ZM-2108.54,1176.33h12.76v-12.76h-12.76v12.76ZM-2236.1,1189.09h12.76v-12.76h-12.76v12.76ZM-2223.34,1189.09h12.76v-12.76h-12.76v12.76ZM-2210.59,1189.09h12.76v-12.76h-12.76v12.76ZM-2197.83,1189.09h12.76v-12.76h-12.76v12.76ZM-2185.07,1189.09h12.76v-12.76h-12.76v12.76ZM-2172.32,1189.09h12.76v-12.76h-12.76v12.76ZM-2159.56,1189.09h12.76v-12.76h-12.76v12.76ZM-2146.81,1189.09h12.76v-12.76h-12.76v12.76ZM-2134.05,1189.09h12.76v-12.76h-12.76v12.76ZM-2121.29,1189.09h12.76v-12.76h-12.76v12.76ZM-2108.54,1189.09h12.76v-12.76h-12.76v12.76ZM-2236.1,1201.84h12.76v-12.76h-12.76v12.76ZM-2223.34,1201.84h12.76v-12.76h-12.76v12.76ZM-2210.59,1201.84h12.76v-12.76h-12.76v12.76ZM-2197.83,1201.84h12.76v-12.76h-12.76v12.76ZM-2185.07,1201.84h12.76v-12.76h-12.76v12.76ZM-2172.32,1201.84h12.76v-12.76h-12.76v12.76ZM-2159.56,1201.84h12.76v-12.76h-12.76v12.76ZM-2146.81,1201.84h12.76v-12.76h-12.76v12.76ZM-2134.05,1201.84h12.76v-12.76h-12.76v12.76ZM-2121.29,1201.84h12.76v-12.76h-12.76v12.76ZM-2108.54,1201.84h12.76v-12.76h-12.76v12.76ZM-2236.1,1214.6h12.76v-12.76h-12.76v12.76ZM-2223.34,1214.6h12.76v-12.76h-12.76v12.76ZM-2210.59,1214.6h12.76v-12.76h-12.76v12.76ZM-2197.83,1214.6h12.76v-12.76h-12.76v12.76ZM-2185.07,1214.6h12.76v-12.76h-12.76v12.76ZM-2172.32,1214.6h12.76v-12.76h-12.76v12.76ZM-2159.56,1214.6h12.76v-12.76h-12.76v12.76ZM-2146.81,1214.6h12.76v-12.76h-12.76v12.76ZM-2134.05,1214.6h12.76v-12.76h-12.76v12.76ZM-2121.29,1214.6h12.76v-12.76h-12.76v12.76ZM-2108.54,1214.6h12.76v-12.76h-12.76v12.76ZM-2236.1,1227.35h12.76v-12.76h-12.76v12.76ZM-2223.34,1227.35h12.76v-12.76h-12.76v12.76ZM-2210.59,1227.35h12.76v-12.76h-12.76v12.76ZM-2197.83,1227.35h12.76v-12.76h-12.76v12.76ZM-2185.07,1227.35h12.76v-12.76h-12.76v12.76ZM-2172.32,1227.35h12.76v-12.76h-12.76v12.76ZM-2159.56,1227.35h12.76v-12.76h-12.76v12.76ZM-2146.81,1227.35h12.76v-12.76h-12.76v12.76ZM-2134.05,1227.35h12.76v-12.76h-12.76v12.76ZM-2121.29,1227.35h12.76v-12.76h-12.76v12.76ZM-2108.54,1227.35h12.76v-12.76h-12.76v12.76ZM-2095.78,1099.8h12.76v-12.76h-12.76v12.76ZM-2095.78,1112.55h12.76v-12.76h-12.76v12.76ZM-2095.78,1125.31h12.76v-12.76h-12.76v12.76ZM-2095.78,1138.06h12.76v-12.76h-12.76v12.76ZM-2095.78,1150.82h12.76v-12.76h-12.76v12.76ZM-2095.78,1163.58h12.76v-12.76h-12.76v12.76ZM-2095.78,1176.33h12.76v-12.76h-12.76v12.76ZM-2095.78,1189.09h12.76v-12.76h-12.76v12.76ZM-2095.78,1201.84h12.76v-12.76h-12.76v12.76ZM-2095.78,1214.6h12.76v-12.76h-12.76v12.76ZM-2095.78,1227.35h12.76v-12.76h-12.76v12.76ZM-2236.1,1087.04h12.76v-12.76h-12.76v12.76ZM-2248.85,1099.8h12.76v-12.76h-12.76v12.76ZM-2248.85,1112.55h12.76v-12.76h-12.76v12.76ZM-2248.85,1125.31h12.76v-12.76h-12.76v12.76ZM-2248.85,1138.06h12.76v-12.76h-12.76v12.76ZM-2248.85,1150.82h12.76v-12.76h-12.76v12.76ZM-2248.85,1163.58h12.76v-12.76h-12.76v12.76ZM-2248.85,1176.33h12.76v-12.76h-12.76v12.76ZM-2248.85,1189.09h12.76v-12.76h-12.76v12.76ZM-2248.85,1201.84h12.76v-12.76h-12.76v12.76ZM-2248.85,1214.6h12.76v-12.76h-12.76v12.76ZM-2248.85,1227.35h12.76v-12.76h-12.76v12.76ZM-2248.85,1087.04h12.76v-12.76h-12.76v12.76ZM-2223.34,1087.04h12.76v-12.76h-12.76v12.76ZM-2210.59,1087.04h12.76v-12.76h-12.76v12.76ZM-2197.83,1087.04h12.76v-12.76h-12.76v12.76ZM-2185.07,1087.04h12.76v-12.76h-12.76v12.76ZM-2172.32,1087.04h12.76v-12.76h-12.76v12.76ZM-2159.56,1087.04h12.76v-12.76h-12.76v12.76ZM-2146.81,1087.04h12.76v-12.76h-12.76v12.76ZM-2134.05,1087.04h12.76v-12.76h-12.76v12.76ZM-2121.29,1087.04h12.76v-12.76h-12.76v12.76ZM-2108.54,1087.04h12.76v-12.76h-12.76v12.76ZM-2095.78,1087.04h12.76v-12.76h-12.76v12.76ZM-2236.1,1240.11h12.76v-12.76h-12.76v12.76ZM-2223.34,1240.11h12.76v-12.76h-12.76v12.76ZM-2210.59,1240.11h12.76v-12.76h-12.76v12.76ZM-2197.83,1240.11h12.76v-12.76h-12.76v12.76ZM-2185.07,1240.11h12.76v-12.76h-12.76v12.76ZM-2172.32,1240.11h12.76v-12.76h-12.76v12.76ZM-2159.56,1240.11h12.76v-12.76h-12.76v12.76ZM-2146.81,1240.11h12.76v-12.76h-12.76v12.76ZM-2134.05,1240.11h12.76v-12.76h-12.76v12.76ZM-2121.29,1240.11h12.76v-12.76h-12.76v12.76ZM-2108.54,1240.11h12.76v-12.76h-12.76v12.76ZM-2095.78,1240.11h12.76v-12.76h-12.76v12.76ZM-2248.85,1240.11h12.76v-12.76h-12.76v12.76Z"/>
  <rect class="cls-8" x="-2248.85" y="1074.28" width="165.83" height="165.83" transform="translate(-1008.74 3323.14) rotate(90)"/>
  <rect class="cls-3" x="-2147.3" y="-183.57" width=".92" height="553.17"/>
  <rect class="cls-3" x="-2173.14" y="-154.72" width="362.77" height=".92"/>
  <rect class="cls-3" x="-2173.14" y="-14.42" width="362.77" height=".92"/>
  <rect class="cls-3" x="-2173.14" y="22.4" width="362.77" height=".92"/>
  <rect class="cls-3" x="-2173.14" y="342.66" width="362.77" height=".92"/>
  <path class="cls-5" d="M-2173.14,24.24h25.84V-13.47h-25.84V24.24ZM-1810.36-13.47h-336.01V24.24h336.01v.48V-13.96v.49Z"/>
  <rect class="cls-3" x="-2147.3" y="-13.49" width=".92" height="35.89"/>
  <polygon class="cls-3" points="-2173.14 -13.96 -2173.14 -13.49 -2147.3 -13.49 -2146.37 -13.49 -1810.36 -13.49 -1810.36 -13.96 -2173.14 -13.96"/>
  <rect class="cls-3" x="-2147.3" y="163.62" width=".92" height="35.89"/>
  <rect class="cls-3" x="-2147.3" y="421.23" width=".92" height="377.39"/>
  <rect class="cls-3" x="-2173.14" y="450.75" width="693.57" height=".92"/>
  <rect class="cls-3" x="-2173.14" y="769.63" width="693.57" height=".92"/>
  <rect class="cls-3" x="-2147.3" y="591.97" width=".92" height="35.89"/>
  <g>
    <path class="cls-6" d="M-2032.04,476.72h-89.29v89.29h89.29v-89.29ZM-2006.53,463.96v114.8c0,7.05-5.71,12.75-12.76,12.75h-114.8c-7.04,0-12.75-5.71-12.75-12.75v-114.8c0-7.04,5.71-12.75,12.75-12.75h114.8c7.04,0,12.76,5.71,12.76,12.75"/>
    <polygon class="cls-1" points="-1839.13 591.52 -1864.64 591.52 -1864.64 527.74 -1936.1 535.68 -1941.17 591.52 -1966.69 591.52 -1961.87 538.55 -1979.44 540.5 -1979.44 514.99 -1959.53 512.77 -1953.93 451.21 -1928.42 451.21 -1933.76 509.91 -1864.65 502.23 -1864.65 451.21 -1839.13 451.21 -1839.13 591.52"/>
    <polygon class="cls-4" points="-2094.03 649.42 -2032.04 642.54 -2032.04 668.05 -2091.73 674.68 -2086.66 730.51 -2006.53 719.07 -2006.53 744.58 -2084.37 755.7 -2083.06 770.09 -2108.57 770.09 -2116.99 677.48 -2146.84 680.8 -2146.84 655.29 -2119.29 652.23 -2121.33 629.78 -2095.82 629.78 -2094.03 649.42"/>
    <path class="cls-4" d="M-1930.95,706.34h-25.35v25.6h25.35v-25.6ZM-1981.91,629.78h140.31l-9.4,102.99,9.4-.84v25.35l-11.73,1.07-1.07,11.73h-25.35l.84-9.39-103,9.39v-76.55c0-7.14,5.66-12.8,12.8-12.8h63.76v56.9l28.73-2.57,7.13-79.69h-112.42v-25.6Z"/>
    <polygon class="cls-4" points="-1785.64 678.97 -1679.13 655.3 -1679.13 680.81 -1788.01 705 -1789.38 720.08 -1679.13 744.58 -1679.13 770.09 -1791.65 745.09 -1793.92 770.09 -1819.43 770.09 -1806.68 629.78 -1781.17 629.78 -1785.64 678.97"/>
    <polygon class="cls-4" points="-1518.62 732.68 -1509.26 731.83 -1509.26 757.34 -1520.96 758.4 -1522.02 770.09 -1547.53 770.09 -1546.68 760.74 -1649.57 770.09 -1649.57 629.78 -1624.07 629.78 -1624.07 742.26 -1544.34 735.01 -1534.78 629.78 -1509.27 629.78 -1518.62 732.68"/>
  </g>
  <rect class="cls-3" x="-2173.14" y="23.85" width="362.77" height=".92"/>
  <g>
    <path class="cls-6" d="M-2032.04-128.74h-89.29V-39.45h89.29v-89.29ZM-2006.53-141.5V-26.71c0,7.05-5.71,12.75-12.75,12.75h-114.8c-7.04,0-12.75-5.71-12.75-12.75v-114.8c0-7.04,5.71-12.75,12.75-12.75h114.8c7.04,0,12.75,5.71,12.75,12.75"/>
    <polygon class="cls-6" points="-1839.13 -13.95 -1864.64 -13.95 -1864.64 -77.72 -1936.1 -69.78 -1941.17 -13.95 -1966.68 -13.95 -1961.87 -66.92 -1979.44 -64.97 -1979.44 -90.48 -1959.52 -92.69 -1953.93 -154.26 -1928.42 -154.26 -1933.75 -95.56 -1864.64 -103.23 -1864.64 -154.25 -1839.13 -154.25 -1839.13 -13.95"/>
    <polygon class="cls-4" points="-2113.04 252.01 -2006.53 228.33 -2006.53 253.85 -2115.41 278.04 -2116.78 293.12 -2006.53 317.62 -2006.53 343.12 -2119.05 318.12 -2121.33 343.12 -2146.84 343.12 -2134.08 202.82 -2108.57 202.82 -2113.04 252.01"/>
    <polygon class="cls-4" points="-1846.02 305.71 -1836.67 304.86 -1836.67 330.37 -1848.36 331.43 -1849.42 343.12 -1874.94 343.12 -1874.08 333.77 -1976.98 343.12 -1976.98 202.81 -1951.47 202.81 -1951.47 315.3 -1871.75 308.05 -1862.18 202.81 -1836.67 202.81 -1846.02 305.71"/>
    <polygon class="cls-4" points="-2094.03 43.95 -2032.04 37.07 -2032.04 62.58 -2091.73 69.21 -2086.66 125.05 -2006.53 113.6 -2006.53 139.11 -2084.37 150.23 -2083.06 164.62 -2108.57 164.62 -2116.99 72.01 -2146.84 75.33 -2146.84 49.82 -2119.29 46.76 -2121.33 24.31 -2095.82 24.31 -2094.03 43.95"/>
    <path class="cls-4" d="M-1930.95,100.87h-25.35v25.6h25.35v-25.6ZM-1981.91,24.32h140.31l-9.4,102.99,9.4-.84v25.35l-11.73,1.07-1.07,11.73h-25.35l.84-9.39-103,9.39v-76.55c0-7.14,5.66-12.8,12.8-12.8h63.76v56.9l28.73-2.57,7.13-79.69h-112.42v-25.6Z"/>
  </g>
  <rect class="cls-2" x="-2248.85" y="1387" width="1055.2" height="38.4"/>
  <rect class="cls-2" x="-2248.85" y="1425.4" width="38.4" height="140.82"/>
  <rect class="cls-2" x="-1232.06" y="1425.4" width="38.4" height="140.82"/>
  <line class="cls-9" x1="-2210.45" y1="1387" x2="-2210.45" y2="1604.63"/>
  <line class="cls-9" x1="-2248.85" y1="1566.23" x2="-1193.66" y2="1566.23"/>
  <line class="cls-9" x1="-2248.85" y1="1425.4" x2="-1193.66" y2="1425.4"/>
  <g>
    <path class="cls-6" d="M-2069.63,1438.21v115.22c0,7.07-5.73,12.8-12.8,12.8h-115.22c-7.07,0-12.8-5.73-12.8-12.8v-115.22c0-7.07,5.73-12.8,12.8-12.8h115.22c7.07,0,12.8,5.73,12.8,12.8ZM-2095.23,1540.63v-89.62h-89.61v89.62h89.61Z"/>
    <path class="cls-6" d="M-1901.62,1566.23h-25.61v-64.01l-71.72,7.97-5.09,56.04h-25.61l4.83-53.17-17.63,1.96v-25.6l19.98-2.22,5.62-61.79h25.6l-5.35,58.92,69.36-7.71v-51.21h25.61v140.82Z"/>
    <path class="cls-4" d="M-1818.97,1445.13l62.22-6.91v25.6l-59.91,6.66,5.09,56.04,80.42-11.49v25.61l-78.13,11.16,1.31,14.44h-25.6l-8.45-92.94-29.96,3.33v-25.6l27.65-3.07-2.05-22.53h25.6l1.8,19.71Z"/>
    <path class="cls-4" d="M-1706.44,1425.41h140.82l-9.43,103.37,9.43-.84v25.45l-11.77,1.08-1.07,11.77h-25.45l.84-9.43-103.37,9.43v-76.83c0-7.16,5.68-12.85,12.85-12.85h63.99v57.11l28.84-2.58,7.16-79.98h-112.83v-25.69ZM-1655.3,1527.94v-25.69h-25.45v25.69h25.45Z"/>
    <path class="cls-4" d="M-1509.45,1474.78l106.9-23.76v25.6l-109.28,24.28-1.38,15.14,110.66,24.59v25.6l-112.94-25.09-2.28,25.09h-25.6l12.8-140.82h25.6l-4.49,49.37Z"/>
    <path class="cls-4" d="M-1241.45,1528.68l9.39-.85v25.6l-11.74,1.06-1.07,11.74h-25.61l.86-9.39-103.27,9.39v-140.82h25.6v112.89l80.01-7.28,9.6-105.62h25.61l-9.38,103.27Z"/>
  </g>
  <rect class="cls-2" x="-2248.85" y="1566.23" width="1055.2" height="38.4"/>
  <line class="cls-9" x1="-1232.06" y1="1387" x2="-1232.06" y2="1604.63"/>
  <rect class="cls-6" x="-2236.05" y="1399.8" width="25.6" height="25.6"/>
  <rect class="cls-6" x="-2248.85" y="1387" width="12.8" height="12.8"/>
  <g>
    <path class="cls-6" d="M140.3,12.76v114.8c0,7.04-5.71,12.75-12.75,12.75H12.75c-7.04,0-12.75-5.71-12.75-12.75V12.76C0,5.71,5.71,0,12.75,0h114.8c7.04,0,12.75,5.71,12.75,12.75ZM114.79,114.8V25.52H25.51v89.29h89.29Z"/>
    <path class="cls-6" d="M307.7,140.31h-25.51v-63.78l-71.46,7.94-5.08,55.83h-25.51l4.82-52.97-17.57,1.95v-25.51l19.91-2.21L192.9,0h25.51l-5.33,58.7,69.11-7.68V0h25.51v140.3Z"/>
  </g>
</svg>